<svg t="1642500531349" class="icon" viewBox="0 0 1024 1024" version="1.1" xmlns="http://www.w3.org/2000/svg" p-id="1855" width="64" height="64"><path d="M512 512m-512 0a512 512 0 1 0 1024 0 512 512 0 1 0-1024 0Z" fill="#F15642" p-id="1856"></path><path d="M840.512 119.488C915.008 208.416 960 322.912 960 448c0 282.752-229.248 512-512 512-125.088 0-239.584-44.992-328.512-119.488C213.408 952.64 354.304 1024 512 1024c282.752 0 512-229.248 512-512 0-157.696-71.36-298.592-183.488-392.512z" fill="#DA4E3C" p-id="1857"></path><path d="M651.584 704c-9.216 0-18.528-2.24-27.04-6.944-59.936-33.184-165.152-33.184-225.12 0-24.736 13.728-56.96 6.432-71.904-16.288s-6.976-52.256 17.76-65.984c93.472-51.744 239.936-51.744 333.408 0 24.736 13.728 32.704 43.264 17.792 65.984-9.856 14.944-27.136 23.232-44.896 23.232z" fill="#B33B32" p-id="1858"></path><path d="M345.312 646.816c93.472-51.744 239.936-51.744 333.408 0 10.912 6.048 18.304 15.2 22.144 25.44 8.352-21.12-0.416-45.376-22.144-57.44-93.472-51.744-239.936-51.744-333.408 0-21.76 12.064-30.496 36.32-22.176 57.44 3.872-10.24 11.296-19.392 22.176-25.44z" fill="#8F3028" p-id="1859"></path><path d="M399.968 496c-9.152 0-18.4-2.624-26.592-8.064l-96-64c-22.048-14.688-28-44.512-13.312-66.56s44.48-28.032 66.56-13.312l96 64c22.048 14.688 28 44.512 13.312 66.56-9.248 13.888-24.48 21.376-39.968 21.376z" fill="#B33B32" p-id="1860"></path><path d="M264.064 405.376c14.688-22.048 44.48-28.032 66.56-13.312l96 64c6.336 4.224 11.168 9.76 14.72 15.904 12.608-21.76 6.496-49.76-14.72-63.904l-96-64c-22.08-14.72-51.872-8.736-66.56 13.312-10.496 15.744-10.304 35.328-1.408 50.656 0.512-0.864 0.832-1.792 1.408-2.656z" fill="#8F3028" p-id="1861"></path><path d="M624.064 496c-15.52 0-30.752-7.488-40-21.376-14.688-22.048-8.736-51.872 13.312-66.56l96-64c22.048-14.72 51.872-8.736 66.56 13.312s8.736 51.872-13.312 66.56l-96 64a47.92 47.92 0 0 1-26.56 8.064z" fill="#B33B32" p-id="1862"></path><path d="M759.936 405.376c-14.688-22.048-44.48-28.032-66.56-13.312l-96 64c-6.304 4.224-11.168 9.76-14.72 15.904-12.608-21.76-6.464-49.76 14.72-63.904l96-64c22.08-14.72 51.872-8.736 66.56 13.312 10.496 15.744 10.304 35.328 1.408 50.656-0.512-0.864-0.832-1.792-1.408-2.656z" fill="#8F3028" p-id="1863"></path><path d="M816 528m-48 0a48 48 0 1 0 96 0 48 48 0 1 0-96 0Z" fill="#DA4E3C" p-id="1864"></path><path d="M208 528m-48 0a48 48 0 1 0 96 0 48 48 0 1 0-96 0Z" fill="#DA4E3C" p-id="1865"></path></svg>