<svg t="1642502302727" class="icon" viewBox="0 0 1024 1024" version="1.1" xmlns="http://www.w3.org/2000/svg" p-id="2011" width="64" height="64"><path d="M512 512m-512 0a512 512 0 1 0 1024 0 512 512 0 1 0-1024 0Z" fill="#FCD063" p-id="2012"></path><path d="M840.512 119.488C915.008 208.416 960 322.912 960 448c0 282.752-229.248 512-512 512-125.088 0-239.584-44.992-328.512-119.488C213.408 952.64 354.304 1024 512 1024c282.752 0 512-229.248 512-512 0-157.696-71.36-298.592-183.488-392.512z" fill="#F7B84E" p-id="2013"></path><path d="M320 448m-64 0a64 64 0 1 0 128 0 64 64 0 1 0-128 0Z" fill="#C98E3F" p-id="2014"></path><path d="M320 416c29.792 0 54.592 20.448 61.728 48 1.344-5.152 2.272-10.432 2.272-16 0-35.328-28.672-64-64-64s-64 28.672-64 64c0 5.568 0.928 10.848 2.272 16 7.136-27.552 31.936-48 61.728-48z" fill="#AB7934" p-id="2015"></path><path d="M704 448m-64 0a64 64 0 1 0 128 0 64 64 0 1 0-128 0Z" fill="#C98E3F" p-id="2016"></path><path d="M816 560m-48 0a48 48 0 1 0 96 0 48 48 0 1 0-96 0Z" fill="#F7B84E" p-id="2017"></path><path d="M208 560m-48 0a48 48 0 1 0 96 0 48 48 0 1 0-96 0Z" fill="#F7B84E" p-id="2018"></path><path d="M704 416c29.792 0 54.592 20.448 61.76 48 1.312-5.152 2.24-10.432 2.24-16 0-35.328-28.672-64-64-64s-64 28.672-64 64c0 5.568 0.928 10.848 2.24 16 7.168-27.552 31.968-48 61.76-48z" fill="#AB7934" p-id="2019"></path><path d="M320 752c0 26.496 21.472 48 48 48s48-21.504 48-48c0-26.464 21.536-48 48-48h96c26.496 0 48-21.504 48-48s-21.504-48-48-48h-96c-3.328 0-6.56 0.352-9.696 0.992C379.488 614.048 320 675.904 320 752z" fill="#C98E3F" p-id="2020"></path><path d="M454.304 640.992A48.374 48.374 0 0 1 464 640h96c20.864 0 38.432 13.408 45.056 32 1.792-5.024 2.944-10.368 2.944-16 0-26.496-21.504-48-48-48h-96c-3.328 0-6.56 0.352-9.696 0.992C379.488 614.048 320 675.904 320 752c0 4.384 0.768 8.576 1.888 12.64 9.152-66.912 64.128-119.008 132.416-123.648z" fill="#AB7934" p-id="2021"></path></svg>