<svg t="1642502376850" class="icon" viewBox="0 0 1024 1024" version="1.1" xmlns="http://www.w3.org/2000/svg" p-id="2637" width="64" height="64"><path d="M512 512m-512 0a512 512 0 1 0 1024 0 512 512 0 1 0-1024 0Z" fill="#FCD063" p-id="2638"></path><path d="M840.512 119.488C915.008 208.416 960 322.912 960 448c0 282.752-229.248 512-512 512-125.088 0-239.552-44.992-328.512-119.488C213.408 952.64 354.304 1024 512 1024c282.752 0 512-229.248 512-512 0-157.696-71.36-298.592-183.488-392.512z" fill="#F7B84E" p-id="2639"></path><path d="M256 352c17.696 0 32 14.304 32 32 0 17.632 14.336 32 32 32s32-14.368 32-32c0-17.696 14.304-32 32-32s32 14.304 32 32c0 52.928-43.072 96-96 96s-96-43.072-96-96c0-17.696 14.304-32 32-32zM640 352c17.696 0 32 14.304 32 32 0 17.632 14.336 32 32 32s32-14.368 32-32c0-17.696 14.304-32 32-32s32 14.304 32 32c0 52.928-43.072 96-96 96s-96-43.072-96-96c0-17.696 14.304-32 32-32z" fill="#C98E3F" p-id="2640"></path><path d="M816 560m-48 0a48 48 0 1 0 96 0 48 48 0 1 0-96 0Z" fill="#F7B84E" p-id="2641"></path><path d="M208 560m-48 0a48 48 0 1 0 96 0 48 48 0 1 0-96 0Z" fill="#F7B84E" p-id="2642"></path><path d="M512 736m-64 0a64 64 0 1 0 128 0 64 64 0 1 0-128 0Z" fill="#C98E3F" p-id="2643"></path><path d="M512 704c29.792 0 54.592 20.448 61.76 48 1.312-5.12 2.24-10.432 2.24-16 0-35.328-28.672-64-64-64s-64 28.672-64 64c0 5.568 0.928 10.88 2.24 16 7.168-27.552 31.968-48 61.76-48zM256 384c17.696 0 32 14.304 32 32 0 17.632 14.336 32 32 32s32-14.368 32-32c0-17.696 14.304-32 32-32 13.6 0 25.056 8.544 29.696 20.512 1.44-6.624 2.304-13.472 2.304-20.512 0-17.696-14.304-32-32-32s-32 14.304-32 32c0 17.632-14.336 32-32 32s-32-14.368-32-32c0-17.696-14.304-32-32-32s-32 14.304-32 32c0 7.04 0.864 13.888 2.304 20.512C230.944 392.544 242.4 384 256 384zM640 384c17.696 0 32 14.304 32 32 0 17.632 14.336 32 32 32s32-14.368 32-32c0-17.696 14.304-32 32-32 13.632 0 25.056 8.544 29.696 20.512 1.44-6.624 2.304-13.472 2.304-20.512 0-17.696-14.304-32-32-32s-32 14.304-32 32c0 17.632-14.336 32-32 32s-32-14.368-32-32c0-17.696-14.304-32-32-32s-32 14.304-32 32c0 7.04 0.864 13.888 2.304 20.512C614.944 392.544 626.368 384 640 384z" fill="#AB7934" p-id="2644"></path></svg>