<svg t="1642502425935" class="icon" viewBox="0 0 1024 1024" version="1.1" xmlns="http://www.w3.org/2000/svg" p-id="2946" width="64" height="64"><path d="M512 512m-512 0a512 512 0 1 0 1024 0 512 512 0 1 0-1024 0Z" fill="#FCD063" p-id="2947"></path><path d="M840.512 119.488C915.008 208.416 960 322.912 960 448c0 282.752-229.248 512-512 512-125.088 0-239.552-44.992-328.512-119.488C213.408 952.64 354.304 1024 512 1024c282.752 0 512-229.248 512-512 0-157.696-71.36-298.592-183.488-392.512z" fill="#F7B84E" p-id="2948"></path><path d="M848 464m-48 0a48 48 0 1 0 96 0 48 48 0 1 0-96 0Z" fill="#F7B84E" p-id="2949"></path><path d="M176 464m-48 0a48 48 0 1 0 96 0 48 48 0 1 0-96 0Z" fill="#F7B84E" p-id="2950"></path><path d="M384 416c-17.696 0-32-14.336-32-32 0-17.632-14.336-32-32-32s-32 14.368-32 32c0 17.664-14.304 32-32 32s-32-14.336-32-32c0-52.928 43.072-96 96-96s96 43.072 96 96c0 17.664-14.304 32-32 32z" fill="#C98E3F" p-id="2951"></path><path d="M320 320c45.888 0 84.256 32.416 93.696 75.488 1.376-3.584 2.304-7.424 2.304-11.488 0-52.928-43.072-96-96-96s-96 43.072-96 96c0 4.064 0.928 7.904 2.304 11.488C235.744 352.416 274.112 320 320 320z" fill="#AB7934" p-id="2952"></path><path d="M768 416c-17.696 0-32-14.336-32-32 0-17.632-14.336-32-32-32s-32 14.368-32 32c0 17.664-14.304 32-32 32s-32-14.336-32-32c0-52.928 43.072-96 96-96s96 43.072 96 96c0 17.664-14.304 32-32 32z" fill="#C98E3F" p-id="2953"></path><path d="M704 320c45.888 0 84.256 32.416 93.696 75.488 1.376-3.584 2.304-7.424 2.304-11.488 0-52.928-43.072-96-96-96s-96 43.072-96 96c0 4.064 0.928 7.904 2.304 11.488C619.744 352.416 658.112 320 704 320z" fill="#AB7934" p-id="2954"></path><path d="M802.944 576H221.056C204.992 576 192 587.936 192 602.688 192 764.448 335.552 896 512 896s320-131.552 320-293.312c0-14.752-12.992-26.688-29.056-26.688z" fill="#FFFFFF" p-id="2955"></path><path d="M829.888 629.312c0.928-8.8 2.112-17.568 2.112-26.624 0-14.752-12.992-26.688-29.056-26.688H221.056C204.992 576 192 587.936 192 602.688c0 9.056 1.184 17.824 2.112 26.624h635.776z" fill="#E2E5E7" p-id="2956"></path><path d="M256 777.952c9.824 12 20.384 23.36 32 33.888V576h-32v201.952zM416 882.464c10.432 3.04 21.12 5.6 32 7.616V576h-32v306.464zM576 890.08c10.88-2.016 21.568-4.608 32-7.616V576h-32v314.08zM768 777.952V576h-32v235.808c11.616-10.496 22.176-21.856 32-33.856z" fill="#E2E5E7" p-id="2957"></path><path d="M256 576h32v53.312h-32zM416 576h32v53.312h-32zM576 576h32v53.312h-32zM736 576h32v53.312h-32z" fill="#CAD1D8" p-id="2958"></path></svg>