<svg t="1631273129067" class="icon" viewBox="0 0 1024 1024" version="1.1" xmlns="http://www.w3.org/2000/svg" p-id="4640" width="128" height="128"><path d="M222.92 372.98c-13.61-17.06-54.42-61.71-111.3-65.09-15.35-0.91-20.22-21.85-6.77-29.31 19.32-10.7 47.1-17.59 85.07-8.66 15.04 3.54 27.05-12.56 19.14-25.83-8.69-14.58-18.96-30.76-29.16-44.39-9.3-12.43 1.26-30.02 16.6-27.62 21.58 3.38 46.23 9.89 66.69 22.28 12.68 7.68 28.5-2.96 26.25-17.61-5.33-34.68-7.41-67.41 3.24-71.6 15.18-5.98 47.79 41.75 67.41 79.01 6.85 13 25.57 12.32 31.42-1.16 9.72-22.38 23.01-49.23 37.15-66.77 18.8-23.32 33.02-17.25 30.6 12.6-1.81 22.23-3.26 52.54-0.54 75.75 1.78 15.23 21.15 20.78 30.79 8.86 19.43-24.04 52.21-57.41 84.76-57.96 14.88-0.25 22.27 18.19 12.29 29.22-31.8 35.14-92.77 110.42-67.29 146.09 30.56 42.78-231.13 48.06-282.69 48.68-5.36 0.06-10.32-2.3-13.66-6.49z" fill="#dbdbdb" p-id="4641"></path><path d="M680.64 561.45c27.72 165.68-68.52 319.86-214.97 344.37S178.02 815.87 150.3 650.19c-1.1-6.6-2.01-13.18-2.73-19.74-17.25-158.02 77.08-301.1 217.7-324.63 146.45-24.5 287.65 89.94 315.37 255.63z" fill="#dbdbdb" p-id="4642"></path><path d="M251.21 672.69c-14.74 0-29.9-1.81-45.33-5.47-35.07-8.3-58.86-22.94-59.86-23.56l6.06-9.75c0.23 0.14 23.47 14.4 56.8 22.23 44.23 10.39 84.38 5.17 119.34-15.51 56.46-33.4 95.47-25.58 133.19-18.03 22.21 4.45 45.17 9.05 71.89 5.05 33.43-5.01 48.34-20.87 64.11-37.67 18.01-19.17 36.62-38.99 81.54-45.2l1.57 11.38c-40.89 5.65-57.33 23.15-74.74 41.68-16.42 17.48-33.4 35.56-70.78 41.16-28.71 4.3-52.67-0.5-75.85-5.14-37.24-7.46-72.42-14.51-125.09 16.65-24.87 14.72-52.98 22.18-82.85 22.18zM235 573.62c-5.64 0-11.34-0.27-17.13-0.8-30.01-2.77-55.54-12.18-71.68-19.58l4.79-10.44c33.32 15.3 98.51 35.47 160.66-1.3 56.46-33.4 95.47-25.58 133.19-18.03 22.21 4.45 45.17 9.04 71.89 5.05 33.43-5.01 48.33-20.87 64.11-37.67 15.03-16 30.57-32.55 61.83-41.2l3.06 11.07c-28.16 7.79-41.94 22.46-56.52 37.99-16.42 17.48-33.4 35.56-70.78 41.16-28.71 4.3-52.67-0.5-75.85-5.14-37.24-7.46-72.42-14.5-125.09 16.65-24.98 14.79-52.66 22.24-82.48 22.24zM228.45 472.74c-19.78 0-37.9-3.26-52.83-7.33l3.02-11.08c32.32 8.82 80.53 13.6 126.62-13.66 56.46-33.4 95.47-25.58 133.19-18.03 22.21 4.45 45.17 9.05 71.89 5.05 33.44-5.01 48.34-20.87 64.11-37.67 3.62-3.85 7.36-7.84 11.35-11.71l8 8.24c-3.8 3.69-7.45 7.58-10.98 11.34-16.42 17.48-33.4 35.56-70.78 41.16-28.71 4.3-52.67-0.5-75.85-5.14-37.24-7.46-72.42-14.5-125.09 16.65-28.07 16.61-56.78 22.18-82.65 22.18zM267.31 772.03c-34.17 0-64.31-9.83-83.85-18.25l4.54-10.55c32.49 14 95.95 32.17 156.02-3.36 56.46-33.4 95.47-25.58 133.19-18.03 22.21 4.45 45.17 9.05 71.89 5.05 33.44-5.01 48.34-20.87 64.11-37.67 16.22-17.27 32.99-35.12 69.27-43.03l2.45 11.22c-32.8 7.15-47.64 22.95-63.35 39.67-16.42 17.48-33.4 35.56-70.78 41.16-28.71 4.3-52.67-0.5-75.85-5.14-37.24-7.46-72.42-14.5-125.09 16.65-27.91 16.53-56.41 22.28-82.55 22.28zM274.32 861.07l-0.16-11.48c28.87-0.4 55.76-7.53 79.94-21.22 59.55-33.7 100.5-26.16 140.11-18.87 23.43 4.31 47.65 8.77 75.95 4.57 34.31-5.09 50.36-18.96 67.77-36.55l8.16 8.08c-18.29 18.48-36.5 34.23-74.25 39.83-30.18 4.48-55.36-0.16-79.71-4.64-39.32-7.24-76.46-14.07-132.37 17.57-25.87 14.64-54.62 22.28-85.44 22.71z" fill="#dbdbdb" p-id="4643"></path><path d="M253.41 653.69c-14.08 0-29.18-1.52-45.14-4.59-34.78-6.68-61.1-18.1-62.2-18.58l4.6-10.52c1.03 0.45 103.79 44.6 165.33 7.14 56.14-34.18 95.33-26.12 133.22-18.33 22.25 4.57 45.26 9.3 71.92 5.31 33.44-5.01 48.34-20.87 64.11-37.67 18-19.17 36.62-38.99 81.54-45.2l1.57 11.38c-40.89 5.65-57.33 23.15-74.74 41.68-16.42 17.48-33.41 35.56-70.78 41.16-28.67 4.3-52.7-0.64-75.94-5.42-37.37-7.68-72.66-14.93-124.94 16.89-18.25 11.13-41.51 16.75-68.55 16.75zM239.31 556.6c-34.69 0-64.31-14.24-85.12-24.25-3.09-1.49-6.02-2.89-8.68-4.12l4.79-10.44c2.76 1.27 5.73 2.69 8.87 4.2 31.04 14.92 82.98 39.89 140.31 5.98 57.97-34.29 97.81-29.82 136.34-25.5 21.26 2.39 43.24 4.85 68.74 1.03 33.44-5.01 48.34-20.87 64.11-37.67 15.03-16 30.57-32.55 61.83-41.2l3.06 11.07c-28.16 7.79-41.94 22.46-56.52 37.99-16.42 17.48-33.41 35.56-70.78 41.16-26.99 4.04-49.73 1.49-71.72-0.98-38.34-4.3-74.55-8.37-129.22 23.97-23.25 13.79-45.52 18.76-66.01 18.76zM232.9 454.26c-17.48 0-33.16-4.28-49.28-8.67l3.02-11.08c33.88 9.24 60.64 16.54 106.4-10.54 56.14-33.21 94.98-24.47 132.55-16.01 22.42 5.04 45.6 10.26 72.58 6.22 33.44-5.01 48.34-20.87 64.11-37.67 3.62-3.85 7.36-7.84 11.35-11.71l8 8.24c-3.8 3.69-7.45 7.58-10.98 11.34-16.42 17.48-33.4 35.56-70.78 41.16-29.1 4.36-53.35-1.1-76.8-6.38-37.01-8.33-71.96-16.19-124.18 14.7-25.98 15.37-47.04 20.4-65.99 20.4zM278.97 751.99c-10.89 0-22.57-1.15-35.01-3.46-30.46-5.66-58.66-16.94-77.22-24.94l4.54-10.55c72.82 31.38 126.76 35.92 160.31 13.49 57.12-38.18 96.44-28.83 134.46-19.8 21.92 5.21 44.58 10.59 70.89 6.65 33.43-5.01 48.33-20.87 64.11-37.67 16.22-17.26 32.99-35.12 69.27-43.03l2.45 11.22c-32.8 7.15-47.64 22.95-63.35 39.67-16.42 17.48-33.4 35.56-70.78 41.16-28.51 4.27-52.27-1.38-75.25-6.84-37.27-8.85-72.47-17.22-125.42 18.18-15.84 10.6-35.61 15.92-59 15.92zM250.67 847.55l-0.16-11.48c31.85-0.44 57.92-7.33 79.71-21.08 61.89-39.05 102.72-29.78 142.22-20.82 22.75 5.17 46.28 10.51 74.07 6.38 34.3-5.09 50.35-18.95 67.77-36.55l8.16 8.08c-18.29 18.48-36.5 34.23-74.25 39.83-29.92 4.44-54.52-1.14-78.3-6.54-38.92-8.84-75.69-17.18-133.55 19.33-23.62 14.91-51.64 22.39-85.67 22.85z" fill="#dbdbdb" p-id="4644"></path><path d="M425.74 914.88c-58.76 0-116.47-21.04-165.89-61.1-60.66-49.16-101.57-121.13-115.21-202.65a360.58 360.58 0 0 1-2.77-20.06c-8.51-78 9.45-154.91 50.58-216.56 41.45-62.13 102.5-102.75 171.88-114.36 72.47-12.13 145.91 8.36 206.77 57.69C631.75 407 672.67 478.97 686.31 560.49c13.64 81.51-1.62 162.88-42.96 229.11-41.49 66.46-104.25 109.74-176.73 121.86a246.419 246.419 0 0 1-40.88 3.42z m-20.59-606.64c-12.96 0-25.96 1.07-38.94 3.24-136.4 22.82-229.94 162.66-212.94 318.34 0.7 6.45 1.61 12.98 2.68 19.41 13.18 78.75 52.64 148.22 111.12 195.62 58.27 47.23 128.46 66.86 197.65 55.29 69.18-11.58 129.16-52.99 168.88-116.62 39.86-63.85 54.56-142.39 41.38-221.14s-52.64-148.22-111.12-195.62c-47.34-38.36-102.56-58.52-158.71-58.52z" fill="#dbdbdb" p-id="4645"></path><path d="M425.74 914.88c-58.76 0-116.47-21.04-165.89-61.1-60.66-49.16-101.57-121.13-115.21-202.65a360.58 360.58 0 0 1-2.77-20.06c-8.51-78 9.45-154.91 50.58-216.56 41.45-62.13 102.5-102.75 171.88-114.36 72.47-12.13 145.91 8.36 206.77 57.69C631.75 407 672.67 478.97 686.31 560.49c13.64 81.51-1.62 162.88-42.96 229.11-41.49 66.46-104.25 109.74-176.73 121.86a246.419 246.419 0 0 1-40.88 3.42z m-20.59-606.64c-12.96 0-25.96 1.07-38.94 3.24-136.4 22.82-229.94 162.66-212.94 318.34 0.7 6.45 1.61 12.98 2.68 19.41 13.18 78.75 52.64 148.22 111.12 195.62 58.27 47.23 128.46 66.86 197.65 55.29 69.18-11.58 129.16-52.99 168.88-116.62 39.86-63.85 54.56-142.39 41.38-221.14s-52.64-148.22-111.12-195.62c-47.34-38.36-102.56-58.52-158.71-58.52z" fill="#dbdbdb" p-id="4646"></path><path d="M794.11 342.75l-32.13-125.3c0.14-1.81-2.47-2.84-3.56-1.39-16.03 21.31-63.44 103.38-101.96 111.78" fill="#dbdbdb" p-id="4647"></path><path d="M788.41 344.21L758.23 226.5c-2.08 3.04-4.44 6.55-6.97 10.33-22.41 33.45-59.93 89.43-93.54 96.76l-2.51-11.5c28.98-6.32 66.25-61.93 86.27-91.81 5.11-7.62 9.14-13.64 12.24-17.76 2.07-2.75 5.68-3.76 9-2.51 2.92 1.1 4.86 3.66 5.13 6.59l31.97 124.68-11.41 2.93z" fill="#dbdbdb" p-id="4648"></path><path d="M698.9 146.05c11.76 28.56 54.14 100.56 175.1 69.38 3.96-1.02 4.4-6.44 0.61-7.97L705.7 139.31c-4.25-1.72-8.54 2.5-6.8 6.74z" fill="#dbdbdb" p-id="4649"></path><path d="M769.35 376.38m-62.58 0a62.58 62.58 0 1 0 125.16 0 62.58 62.58 0 1 0-125.16 0Z" fill="#dbdbdb" p-id="4650"></path><path d="M841.94 499.62m-62.58 0a62.58 62.58 0 1 0 125.16 0 62.58 62.58 0 1 0-125.16 0Z" fill="#dbdbdb" p-id="4651"></path><path d="M864.42 602.11m-62.58 0a62.58 62.58 0 1 0 125.16 0 62.58 62.58 0 1 0-125.16 0Z" fill="#dbdbdb" p-id="4652"></path><path d="M532.58 859.44m-62.58 0a62.58 62.58 0 1 0 125.16 0 62.58 62.58 0 1 0-125.16 0Z" fill="#dbdbdb" p-id="4653"></path><path d="M671.55 438.96m-62.58 0a62.58 62.58 0 1 0 125.16 0 62.58 62.58 0 1 0-125.16 0Z" fill="#dbdbdb" p-id="4654"></path><path d="M591.13 526.49m-62.58 0a62.58 62.58 0 1 0 125.16 0 62.58 62.58 0 1 0-125.16 0Z" fill="#dbdbdb" p-id="4655"></path><path d="M595.16 654.13m-62.58 0a62.58 62.58 0 1 0 125.16 0 62.58 62.58 0 1 0-125.16 0Z" fill="#dbdbdb" p-id="4656"></path><path d="M551.42 714.78m-62.58 0a62.58 62.58 0 1 0 125.16 0 62.58 62.58 0 1 0-125.16 0Z" fill="#dbdbdb" p-id="4657"></path><path d="M518.57 541.44m-62.58 0a62.58 62.58 0 1 0 125.16 0 62.58 62.58 0 1 0-125.16 0Z" fill="#dbdbdb" p-id="4658"></path><path d="M528.55 666.99m-62.58 0a62.58 62.58 0 1 0 125.16 0 62.58 62.58 0 1 0-125.16 0Z" fill="#dbdbdb" p-id="4659"></path><path d="M595.16 753.47m-62.58 0a62.58 62.58 0 1 0 125.16 0 62.58 62.58 0 1 0-125.16 0Z" fill="#dbdbdb" p-id="4660"></path><path d="M566.46 376.38m-60.25 0a60.25 60.25 0 1 0 120.5 0 60.25 60.25 0 1 0-120.5 0Z" fill="#dbdbdb" p-id="4661"></path><path d="M465.02 439.91m-60.25 0a60.25 60.25 0 1 0 120.5 0 60.25 60.25 0 1 0-120.5 0Z" fill="#dbdbdb" p-id="4662"></path><path d="M524.57 471.87m-60.25 0a60.25 60.25 0 1 0 120.5 0 60.25 60.25 0 1 0-120.5 0Z" fill="#dbdbdb" p-id="4663"></path><path d="M506.21 602.11m-60.25 0a60.25 60.25 0 1 0 120.5 0 60.25 60.25 0 1 0-120.5 0Z" fill="#dbdbdb" p-id="4664"></path><path d="M458.13 513.53m-60.25 0a60.25 60.25 0 1 0 120.5 0 60.25 60.25 0 1 0-120.5 0Z" fill="#dbdbdb" p-id="4665"></path><path d="M572.06 455.19m-57.62 0a57.62 57.62 0 1 0 115.24 0 57.62 57.62 0 1 0-115.24 0Z" fill="#dbdbdb" p-id="4666"></path><path d="M658.21 379.47m-60.25 0a60.25 60.25 0 1 0 120.5 0 60.25 60.25 0 1 0-120.5 0Z" fill="#dbdbdb" p-id="4667"></path><path d="M623.47 821.26m-60.25 0a60.25 60.25 0 1 0 120.5 0 60.25 60.25 0 1 0-120.5 0Z" fill="#dbdbdb" p-id="4668"></path><path d="M683.72 692.12m-60.25 0a60.25 60.25 0 1 0 120.5 0 60.25 60.25 0 1 0-120.5 0Z" fill="#dbdbdb" p-id="4669"></path><path d="M642.02 593.88m-60.25 0a60.25 60.25 0 1 0 120.5 0 60.25 60.25 0 1 0-120.5 0Z" fill="#dbdbdb" p-id="4670"></path><path d="M741.54 533.63m-60.25 0a60.25 60.25 0 1 0 120.5 0 60.25 60.25 0 1 0-120.5 0Z" fill="#dbdbdb" p-id="4671"></path><path d="M769.35 651.8m-60.25 0a60.25 60.25 0 1 0 120.5 0 60.25 60.25 0 1 0-120.5 0Z" fill="#dbdbdb" p-id="4672"></path><path d="M713.97 752.38m-60.25 0a60.25 60.25 0 1 0 120.5 0 60.25 60.25 0 1 0-120.5 0Z" fill="#dbdbdb" p-id="4673"></path><path d="M807.81 681.54m-60.25 0a60.25 60.25 0 1 0 120.5 0 60.25 60.25 0 1 0-120.5 0Z" fill="#dbdbdb" p-id="4674"></path><path d="M475.73 643.98m-60.25 0a60.25 60.25 0 1 0 120.5 0 60.25 60.25 0 1 0-120.5 0Z" fill="#dbdbdb" p-id="4675"></path><path d="M584.83 571.61m-60.25 0a60.25 60.25 0 1 0 120.5 0 60.25 60.25 0 1 0-120.5 0Z" fill="#dbdbdb" p-id="4676"></path><path d="M680.78 501.32m-60.25 0a60.25 60.25 0 1 0 120.5 0 60.25 60.25 0 1 0-120.5 0Z" fill="#dbdbdb" p-id="4677"></path><path d="M787.86 445.01m-62.58 0a62.58 62.58 0 1 0 125.16 0 62.58 62.58 0 1 0-125.16 0Z" fill="#dbdbdb" p-id="4678"></path><path d="M496.91 773.55m-60.25 0a60.25 60.25 0 1 0 120.5 0 60.25 60.25 0 1 0-120.5 0Z" fill="#dbdbdb" p-id="4679"></path><path d="M595.16 686.03m-60.25 0a60.25 60.25 0 1 0 120.5 0 60.25 60.25 0 1 0-120.5 0Z" fill="#dbdbdb" p-id="4680"></path><path d="M705.37 631.87m-60.25 0a60.25 60.25 0 1 0 120.5 0 60.25 60.25 0 1 0-120.5 0Z" fill="#dbdbdb" p-id="4681"></path><path d="M804.76 561.03m-60.25 0a60.25 60.25 0 1 0 120.5 0 60.25 60.25 0 1 0-120.5 0Z" fill="#dbdbdb" p-id="4682"></path></svg>