<svg t="1634699333201" class="icon" viewBox="0 0 1024 1024" version="1.1" xmlns="http://www.w3.org/2000/svg" p-id="3858" width="64" height="64"><path d="M895.2 767.2V864c0 17.6-14.4 32-32 32h-160V720c0-8.8-7.2-16-16-16h-352c-8.8 0-16 7.2-16 16v176H160.8c-17.6 0-32-14.4-32-32V768c0-128 256-192 383.2-192s383.2 64 383.2 191.2z m-384 128.8h128v-32h-128v32z m64-64h64v-32h-64v32z m-288-544c0 124 100 224 224 224s224-100 224-224-100-224-224-224c-101.6 0-187.2 67.2-214.4 160H191.2v32h98.4c-1.6 10.4-2.4 20.8-2.4 32z" p-id="3859" fill="#ffffff"></path></svg>