<svg t="1634699455048" class="icon" viewBox="0 0 1024 1024" version="1.1" xmlns="http://www.w3.org/2000/svg" p-id="8774" width="64" height="64"><path d="M277.333333 106.666667a106.666667 106.666667 0 0 0 106.666667 106.666666h256a106.666667 106.666667 0 0 0 106.666667-106.666666h85.333333a85.333333 85.333333 0 0 1 85.333333 85.333333v682.666667a85.333333 85.333333 0 0 1-85.333333 85.333333H192a85.333333 85.333333 0 0 1-85.333333-85.333333V192a85.333333 85.333333 0 0 1 85.333333-85.333333h85.333333z m400.64 286.186666l-2.794666 2.346667-225.898667 207.061333-99.114667-99.093333-2.709333-2.496a42.666667 42.666667 0 0 0-60.117333 60.117333l2.496 2.709334 128 128 2.773333 2.56a42.666667 42.666667 0 0 0 53.333333 1.152l2.88-2.432 256-234.666667 2.624-2.602667a42.666667 42.666667 0 0 0-54.485333-64.746666l-2.986667 2.090666zM640 64a42.666667 42.666667 0 1 1 0 85.333333H384a42.666667 42.666667 0 1 1 0-85.333333h256z" p-id="8775" fill="#ffffff"></path></svg>