<svg t="1634699243836" class="icon" viewBox="0 0 1024 1024" version="1.1" xmlns="http://www.w3.org/2000/svg" p-id="2711" width="64" height="64"><path d="M921.6 153.6h-204.8V51.2H0v768h60.416a153.6 153.6 0 0 1 288.256 0h326.144a153.6 153.6 0 0 1 288.256 0H1024v-307.2z m-77.312 102.4l44.032 153.6H716.8V256z" p-id="2712" fill="#ffffff"></path><path d="M204.8 870.4m-102.4 0a102.4 102.4 0 1 0 204.8 0 102.4 102.4 0 1 0-204.8 0Z" p-id="2713" fill="#ffffff"></path><path d="M819.2 870.4m-102.4 0a102.4 102.4 0 1 0 204.8 0 102.4 102.4 0 1 0-204.8 0Z" p-id="2714" fill="#ffffff"></path></svg>