<?xml version="1.0" encoding="UTF-8"?>
<svg width="53px" height="47px" viewBox="0 0 53 47" version="1.1" xmlns="http://www.w3.org/2000/svg" xmlns:xlink="http://www.w3.org/1999/xlink">
    <!-- Generator: Sketch 64 (93537) - https://sketch.com -->
    <title>地址</title>
    <desc>Created with Sketch.</desc>
    <g id="页面-1" stroke="none" stroke-width="1" fill="none" fill-rule="evenodd">
        <rect id="矩形" stroke="#979797" fill="#FFFFFF" x="-28.5" y="-118.5" width="313" height="224"></rect>
        <g id="地址" fill="#202020" fill-rule="nonzero">
            <path d="M50.6931,46.677 L1.6563,46.677 C0.7475,46.677 0.0115,45.941 0.0115,45.0322 C0.0115,44.1234 0.7475,43.3874 1.6563,43.3874 L50.6931,43.3874 C51.6019,43.3874 52.3379,44.1234 52.3379,45.0322 C52.3379,45.941 51.6019,46.677 50.6931,46.677 L50.6931,46.677 Z M26.1235,25.8978 C21.6371,25.8978 17.9891,22.2498 17.9891,17.7634 C17.9891,13.277 21.6371,9.629 26.1235,9.629 C30.6099,9.629 34.2579,13.277 34.2579,17.7634 C34.2579,22.2434 30.6099,25.8978 26.1235,25.8978 Z M26.1235,12.8994 C23.4483,12.8994 21.2659,15.0818 21.2659,17.757 C21.2659,20.4322 23.4483,22.6146 26.1235,22.6146 C28.7987,22.6146 30.9811,20.4322 30.9811,17.757 C30.9811,15.0754 28.7987,12.8994 26.1235,12.8994 L26.1235,12.8994 Z" id="形状"></path>
            <path d="M26.1235,45.677 C25.7075,45.677 25.2915,45.517 24.9715,45.2034 C24.7987,45.037 20.6771,40.9602 16.4851,35.6738 C10.7123,28.3842 7.7811,22.5538 7.7811,18.3554 C7.7811,15.8786 8.2675,13.4786 9.2275,11.213 C10.1491,9.0242 11.4739,7.0658 13.1571,5.3826 C14.8403,3.6994 16.8051,2.3746 18.9875,1.453 C21.2467,0.493 23.6467,0.013 26.1235,0.013 C28.6003,0.013 31.0003,0.4994 33.2659,1.4594 C35.4547,2.381 37.4131,3.7058 39.0963,5.389 C40.7795,7.0722 42.1043,9.037 43.0259,11.2194 C43.9859,13.485 44.4723,15.885 44.4723,18.3618 C44.4723,22.5666 41.5411,28.397 35.7619,35.6802 C31.5699,40.9666 27.4483,45.0434 27.2755,45.2098 C26.9555,45.517 26.5395,45.677 26.1235,45.677 Z M26.1235,3.2898 C17.8163,3.2898 11.0579,10.0482 11.0579,18.3554 C11.0579,20.1794 11.8643,22.5666 13.4579,25.4594 C14.7955,27.8914 16.6707,30.637 19.0387,33.613 C21.8099,37.1074 24.6131,40.1218 26.1299,41.6962 C27.6467,40.1218 30.4435,37.1074 33.2211,33.613 C35.5891,30.6306 37.4579,27.885 38.8019,25.4594 C40.3955,22.573 41.2019,20.1794 41.2019,18.3554 C41.1891,10.0482 34.4307,3.2898 26.1235,3.2898 Z" id="形状"></path>
        </g>
    </g>
</svg>