<?xml version="1.0" encoding="UTF-8"?>
<svg width="41px" height="47px" viewBox="0 0 41 47" version="1.1" xmlns="http://www.w3.org/2000/svg" xmlns:xlink="http://www.w3.org/1999/xlink">
    <!-- Generator: Sketch 64 (93537) - https://sketch.com -->
    <title>回收</title>
    <desc>Created with Sketch.</desc>
    <g id="页面-1" stroke="none" stroke-width="1" fill="none" fill-rule="evenodd">
        <g id="回收" fill="#17B319" fill-rule="nonzero">
            <path d="M2.92514621,41.7979594 C2.93834994,44.6744194 5.55911905,47 8.78742688,47 L32.2125731,47 C35.4502213,47 38.0748538,44.6614022 38.0748538,41.7765957 L38.0748538,13.0959406 L2.92514621,13.0959406 L2.92514621,41.7979594 Z M30.9298246,31.6395597 C30.8795511,31.8896548 30.7600572,32.1246261 30.5821637,32.3231955 C30.2066065,32.7318892 29.713518,33.0420195 29.1555556,33.2204674 C28.6995186,33.3519823 28.2181674,33.3992333 27.7409357,33.3593309 L25.1874269,29.4925163 L28.6280702,27.7727452 L30.869883,31.1695602 C30.9194281,31.3257541 30.9396812,31.4881667 30.9298246,31.6502415 M28.2684211,36.3181917 C28.1505106,36.4892801 28.00047,36.6410352 27.8248538,36.7668277 C27.6491521,36.8646552 27.4444472,36.913046 27.2374269,36.9056912 L24.8397661,36.9056912 L24.8397661,38.0486447 L22.1543859,35.5063743 L24.8997076,32.4406953 L24.8997076,33.5088762 L27.9207602,33.5943306 C28.5057741,33.5937912 29.0846938,33.4884459 29.6230994,33.2845582 C30.1001489,33.1037595 30.5141136,32.8123676 30.8219298,32.4406953 L28.2684211,36.3181917 Z M20.9675439,23.0086587 C20.6579127,22.559955 20.2502305,22.1712746 19.7687134,21.8657052 C19.3447309,21.595937 18.8486333,21.4301748 18.3301169,21.3850238 L23.4011696,21.3850238 C23.629931,21.3883321 23.8566067,21.4243986 24.0725146,21.4918419 C24.2553298,21.5798442 24.4053277,21.7134951 24.5040936,21.876387 L25.702924,23.6816126 L26.8418129,23.1368404 L25.6429824,26.4375191 L21.2312866,25.8820651 L22.3342105,25.3372929 L20.9675439,23.0086587 Z M18.2581871,27.110473 L14.8175438,25.3800201 L17.0593567,21.9725233 C17.4002509,21.6734062 17.8837854,21.5417611 18.3540936,21.6200236 C18.944325,21.6947913 19.5000876,21.9128249 19.9605263,22.2502503 C20.3193359,22.5245035 20.6093449,22.8629758 20.8116959,23.2436585 L18.2581871,27.110473 Z M14.7216374,36.8950094 C14.5446534,36.8562033 14.3777534,36.7872885 14.2301169,36.692055 C14.0033668,36.5355176 13.8258064,36.329477 13.7146199,36.0938738 C13.5002373,35.608678 13.438075,35.0806478 13.5347953,34.5663752 C13.6287902,34.151991 13.8253802,33.7615179 14.1102339,33.4234217 L19.2172515,33.4234217 L19.2172515,36.8950094 L14.7216374,36.8950094 Z M10.9093567,32.3552409 C10.798229,32.1792895 10.7212219,31.9878903 10.681579,31.789105 C10.6777961,31.6084734 10.731856,31.4306209 10.8374269,31.2763782 L12.0362573,29.4711527 L10.9093567,28.840926 L14.7695907,28.0825176 L16.4359649,31.6929688 L15.3330409,31.1375147 L13.7505848,33.3806945 C13.4797411,33.8397537 13.3281501,34.3471807 13.3070175,34.8654658 C13.2461842,35.3182744 13.3292588,35.7772051 13.5467836,36.19001 L10.9093567,32.3552409 Z" id="形状"></path>
            <path d="M38.0748538,5.26617518 L29.2754386,5.26617518 L29.2754386,2.59572311 C29.2754928,1.17047068 27.9857787,0.0117741459 26.3862573,2.16722324e-05 L14.6377193,2.16722324e-05 C13.8630268,-0.0027969398 13.1189701,0.269421106 12.5700514,0.75651365 C12.0211328,1.24360619 11.7125665,1.90545138 11.7125731,2.59572311 L11.7125731,5.26617518 L2.92514621,5.26617518 C2.15045367,5.26333456 1.40639702,5.5355526 0.85747835,6.02264513 C0.308559677,6.50973767 0,7.17158284 0,7.86185456 L0,10.5002612 L41,10.5002612 L41,7.87253636 C41,6.43308282 39.6903674,5.26617518 38.0748538,5.26617518 L38.0748538,5.26617518 Z" id="路径" fill-opacity="0.650583547"></path>
        </g>
    </g>
</svg>