<?xml version="1.0" encoding="UTF-8"?>
<svg width="41px" height="47px" viewBox="0 0 41 47" version="1.1" xmlns="http://www.w3.org/2000/svg" xmlns:xlink="http://www.w3.org/1999/xlink">
    <!-- Generator: Sketch 64 (93537) - https://sketch.com -->
    <title>策略集-累计收益</title>
    <desc>Created with Sketch.</desc>
    <g id="页面-1" stroke="none" stroke-width="1" fill="none" fill-rule="evenodd">
        <g id="策略集-累计收益" fill="#F25B5B" fill-rule="nonzero">
            <path d="M29.5756875,14.803125 L11.1285,14.803125 C5.10890625,18.3469219 0.011625,25.1917969 0.011625,34.26975 C0.011625,44.2700625 9.52654687,46.5517031 20.4006563,46.5517031 C31.2747656,46.5517031 40.3041562,44.1729844 40.3041562,34.1726719 C40.3041562,25.7743594 35.8865625,18.4925625 29.5756875,14.803125 Z M24.1871719,27.5705156 C24.9638906,27.5705156 25.5464531,28.1530781 25.5464531,28.8812344 C25.5464531,29.6093906 24.9153281,30.1919531 24.1871719,30.1919531 L21.4200937,30.1919531 L21.4200937,31.5026719 L24.1871719,31.5026719 C24.9638906,31.5026719 25.5464531,32.0852344 25.5464531,32.8133906 C25.5464531,33.5415937 24.9153281,34.1241094 24.1871719,34.1241094 L21.4200937,34.1241094 L21.4200937,36.8426719 C21.4200937,37.5708281 20.7890156,38.1533906 20.0608125,38.1533906 C19.2840937,38.1533906 18.7015781,37.5708281 18.7015781,36.8426719 L18.7015781,34.1240625 L15.9345,34.1240625 C15.1577812,34.1240625 14.5752187,33.5415469 14.5752187,32.8133437 C14.5752187,32.0851875 15.2062969,31.502625 15.9345,31.502625 L18.7015312,31.502625 L18.7015312,30.1919062 L15.9345,30.1919062 C15.1577812,30.1919062 14.5752187,29.6093906 14.5752187,28.8811875 C14.5752187,28.1530312 15.2062969,27.5704687 15.9345,27.5704687 L18.7015312,27.5704687 L18.7015312,26.79375 L14.8665,23.2985156 C14.3325,22.8130312 14.2839375,21.9877969 14.8179375,21.4537969 C15.3519375,20.9197969 16.2257812,20.9197969 16.7597344,21.4052344 L20.2064531,24.5121094 L23.6531719,21.4052344 C24.1871719,20.9197969 25.0609687,20.9197969 25.5949687,21.4537969 C26.1289687,21.9877969 26.1289687,22.7645156 25.5464531,23.2985156 L21.4686562,26.9879531 L21.4686562,27.5704687 L24.1871719,27.5704687 L24.1871719,27.5705156 Z" id="形状"></path>
            <path d="M12.4877813,10.9680469 L27.8766094,10.9195312 C28.6047656,10.8224531 31.1776875,7.81265625 31.8087656,4.60865625 C32.3913281,1.5988125 30.6436875,0.6279375 26.2746094,0.6279375 C21.9055313,0.6279375 22.779375,4.8999375 21.9055313,4.8999375 C21.3715313,4.8999375 20.9346563,1.647375 18.9442969,0.239625 C17.5365,-0.731390625 15.5460938,1.79301562 13.6528125,1.79301562 C11.4682969,1.79301562 8.55557813,1.55025 8.55557813,4.75425 C8.55557813,7.47276562 11.7595781,10.9680469 12.4877344,10.9680469 L12.4877813,10.9680469 Z" id="路径-2" fill-opacity="0.646648274"></path>
            <path d="M11.8567031,11.4049687 C11.2741406,11.4049687 10.7887031,11.7933281 10.7887031,12.3273281 C10.7887031,12.8127656 11.2741406,13.2496875 11.8567031,13.2496875 L28.6532812,13.2496875 C29.2843594,13.2496875 29.7212812,12.8613281 29.7212812,12.3273281 C29.7212812,11.8418906 29.2358437,11.4049687 28.6532812,11.4049687 L11.8567031,11.4049687 Z" id="路径" fill-opacity="0.652109853"></path>
        </g>
    </g>
</svg>