<?xml version="1.0" encoding="UTF-8"?>
<svg width="126px" height="126px" viewBox="0 0 126 126" version="1.1" xmlns="http://www.w3.org/2000/svg" xmlns:xlink="http://www.w3.org/1999/xlink">
    <!-- Generator: Sketch 64 (93537) - https://sketch.com -->
    <title>头像</title>
    <desc>Created with Sketch.</desc>
    <g id="页面-1" stroke="none" stroke-width="1" fill="none" fill-rule="evenodd">
        <g id="头像" fill-rule="nonzero">
            <path d="M125.632375,62.8189644 C125.632375,28.1343005 97.5110037,0.012928625 62.8263397,0.012928625 C28.1416758,0.012928625 0.02206,28.1343004 0.02206,62.8189644 C0.02206,81.413203 8.1094125,98.1146571 20.9533083,109.613587 C21.7083151,97.6124898 35.84099,81.6414609 47.536573,81.6414609 C53.1306471,85.2953429 55.6643096,87.4234087 62.8263398,87.4234087 C69.9883699,87.4234087 73.1541313,85.2496914 78.7464495,81.5975651 C86.5107294,81.0093621 103.772293,97.5615706 104.725709,109.592517 C117.553802,98.0935871 125.632375,81.402668 125.632375,62.8189644 Z M62.8280956,78.6723525 C50.6900435,78.6723525 40.8468611,68.767716 40.8468611,56.5488957 C40.8468611,44.3300755 50.6882878,34.4236831 62.8280956,34.4236831 C74.9679035,34.4236831 84.8093303,44.3300755 84.8093303,56.5488958 C84.8093303,68.767716 74.9679036,78.6723525 62.8280956,78.6723525 L62.8280956,78.6723525 Z" id="形状" fill="#EEEEEE"></path>
            <path d="M62.8263398,99.4596227 C60.8229379,99.4596227 59.1987953,101.138196 59.1987953,103.210075 L59.1987953,110.784726 C59.1987953,112.856605 60.8246938,114.535178 62.8263398,114.535178 C64.8314975,114.535178 66.4556403,112.856605 66.4556403,110.784726 L66.4556403,103.210075 C66.4556403,101.138196 64.8297417,99.4596227 62.8263398,99.4596227 Z" id="路径" fill="#EEEEEE"></path>
            <path d="M40.8468611,56.5488958 C40.8462689,64.4532429 45.035739,71.7574159 51.8369999,75.7097616 C58.6382607,79.6621072 67.0179306,79.6621072 73.8191915,75.7097616 C80.6204524,71.7574159 84.8099225,64.4532429 84.8093302,56.5488958 C84.8099225,48.6445486 80.6204524,41.3403756 73.8191915,37.3880299 C67.0179306,33.4356843 58.6382607,33.4356843 51.8369999,37.3880299 C45.035739,41.3403756 40.8462689,48.6445486 40.8468611,56.5488958 Z" id="路径" fill="#A3A3A3"></path>
            <path d="M78.7464495,81.5975651 C73.1523754,85.2496914 69.98837,87.4234087 62.8263397,87.4234087 C55.6643095,87.4234087 53.130647,85.2953429 47.536573,81.6414609 C35.8427459,81.6414609 21.7083151,97.6124896 20.9533082,109.613587 C32.0659557,119.565631 46.7376704,125.623244 62.8280956,125.623244 C78.9290559,125.623244 93.6095496,119.556852 104.725709,109.592517 C103.772293,97.5615706 86.5107294,81.0093621 78.7464495,81.5975651 L78.7464495,81.5975651 Z M66.4556403,110.784726 C66.4556403,112.856605 64.8297417,114.535178 62.8263398,114.535178 C60.8229378,114.535178 59.1987953,112.856605 59.1987953,110.784726 L59.1987953,103.210075 C59.1987953,101.138196 60.8246937,99.4596227 62.8263398,99.4596227 C64.8314975,99.4596227 66.4556403,101.138196 66.4556403,103.210075 L66.4556403,110.784726 Z" id="形状" fill="#A3A3A3"></path>
        </g>
    </g>
</svg>