<svg t="1637806395846" class="icon" viewBox="0 0 1024 1024" version="1.1" xmlns="http://www.w3.org/2000/svg" p-id="5812" width="64" height="64"><path d="M745.4 430.9m-36 0a36 36 0 1 0 72 0 36 36 0 1 0-72 0Z" p-id="5813" fill="#d9d9d9"></path><path d="M511 400c-88.7 0-160.8 72.1-160.8 160.8 0 88.7 72.1 160.8 160.8 160.8s160.8-72.2 160.8-160.8c0-88.7-72.1-160.8-160.8-160.8z m0 249.7c-49 0-88.8-39.9-88.8-88.8S462 472 511 472s88.9 39.9 88.9 88.8-39.9 88.9-88.9 88.9z" p-id="5814" fill="#d9d9d9"></path><path d="M807.1 281.9h-12.9l-11.7-55c-5-28.3-40.1-65.9-82.6-65.9H322.1c-42.4 0-74.8 25.8-82.4 65.1l-11.9 55.8h-12.9c-66.2 0-120 53.8-120 120v335.9c0 66.1 53.8 120 120 120h592.2c66.1 0 120-53.8 120-120V401.9c-0.1-66.2-53.9-120-120-120z m48 455.9c0 26.5-21.5 48-48 48H214.9c-26.5 0-48-21.5-48-48V401.9c0-26.5 21.5-48 48-48h42c1.6 0 3.1-0.3 4.7-0.5 0.7-0.1 1.5-0.1 2.2-0.2 2-0.4 3.9-1 5.8-1.7l0.9-0.3c1.8-0.7 3.5-1.7 5.2-2.7 0.3-0.2 0.7-0.3 1-0.5 1.5-1 2.8-2.1 4.1-3.2 0.5-0.4 1-0.7 1.4-1.1 1.1-1.1 2-2.3 3-3.5 0.5-0.6 1.1-1.2 1.5-1.8 0.9-1.3 1.6-2.7 2.3-4.1 0.3-0.7 0.8-1.3 1.1-2 0.8-1.8 1.3-3.7 1.8-5.7 0.1-0.4 0.3-0.7 0.3-1.1v-0.1c0-0.1 0-0.2 0.1-0.2l18.1-84.6c0.8-4 1.4-7.5 11.9-7.5h377.8c2.8 0 9.3 5 12.2 9.2l17.7 83V325.6c0.5 2.2 1.1 4.3 2 6.3 0.2 0.6 0.6 1.1 0.8 1.6 0.7 1.5 1.4 2.9 2.3 4.2 0.4 0.6 0.9 1.2 1.4 1.8 0.9 1.1 1.7 2.3 2.7 3.3 0.6 0.6 1.2 1.2 1.8 1.7 1 0.9 2 1.8 3.1 2.5 0.7 0.5 1.4 1 2.2 1.5 1.1 0.7 2.3 1.3 3.5 1.9 0.8 0.4 1.6 0.8 2.4 1.1 1.4 0.5 2.8 0.9 4.2 1.3 0.7 0.2 1.4 0.4 2.1 0.5 2.2 0.4 4.5 0.7 6.8 0.7h42.1c26.4 0 48 21.5 48 48v335.8z" p-id="5815" fill="#d9d9d9"></path></svg>