<svg t="1637978547591" class="icon" viewBox="0 0 1024 1024" version="1.1" xmlns="http://www.w3.org/2000/svg" p-id="18738" width="64" height="64"><path d="M372.363636 849.454545a35.84 35.84 0 0 1-23.272727-8.145454 35.374545 35.374545 0 0 1-3.490909-50.036364l512-605.090909a34.909091 34.909091 0 1 1 53.527273 46.545455l-512 605.090909a35.374545 35.374545 0 0 1-26.763637 11.636363z" p-id="18739" fill="#1890ff"></path><path d="M372.363636 849.454545a35.374545 35.374545 0 0 1-21.876363-7.68l-232.727273-186.181818a34.909091 34.909091 0 0 1 43.752727-54.458182l232.727273 186.181819a35.141818 35.141818 0 0 1 5.352727 49.105454 34.443636 34.443636 0 0 1-27.229091 13.032727z" p-id="18740" fill="#1890ff"></path></svg>