<?xml version="1.0" encoding="UTF-8"?>
<svg width="39px" height="40px" viewBox="0 0 39 40" version="1.1" xmlns="http://www.w3.org/2000/svg" xmlns:xlink="http://www.w3.org/1999/xlink">
    <!-- Generator: Sketch 64 (93537) - https://sketch.com -->
    <title>编辑</title>
    <desc>Created with Sketch.</desc>
    <g id="页面-1" stroke="none" stroke-width="1" fill="none" fill-rule="evenodd">
        <g id="编辑" fill="#202020" fill-rule="nonzero">
            <path d="M37.765625,35.46875 C38.3179098,35.46875 38.765625,35.9164653 38.765625,36.46875 L38.765625,38.46875 C38.765625,39.0210348 38.3179098,39.46875 37.765625,39.46875 L20.765625,39.46875 C20.2133403,39.46875 19.765625,39.0210348 19.765625,38.46875 L19.765625,36.46875 C19.765625,35.9164653 20.2133403,35.46875 20.765625,35.46875 L37.765625,35.46875 Z M23.610625,1.76775 C25.9553456,-0.565788718 29.7464177,-0.561315484 32.085625,1.77774998 L36.305625,5.99874998 C37.4312365,7.12417068 38.0633439,8.65073705 38.0633439,10.2424571 C38.0633439,11.8341772 37.4305017,13.3605946 36.304625,14.48575 L15.000625,35.68575 C13.9756379,36.7061007 12.6165859,37.3218823 11.173625,37.41975 L3.212625,37.95975 C2.34817661,38.0183599 1.50060238,37.7003666 0.888037576,37.0876101 C0.275472769,36.4748537 -0.0422553663,35.62718 0.0166250156,34.76275 L0.554625,26.81275 C0.653150765,25.3600727 1.27655121,23.9927857 2.30862502,22.96575 L23.610625,1.76775 Z M21.489625,9.52175002 L5.129625,25.80075 C4.78591841,26.1431123 4.57836654,26.5987313 4.54562498,27.08275 L4.08462502,33.88975 L10.903625,33.42875 C11.3228473,33.4001649 11.7224174,33.2402669 12.045625,32.97175 L12.178625,32.85175 L28.538625,16.57075 L21.488625,9.52074998 L21.489625,9.52175002 Z M37.765625,25.96875 C38.3179098,25.96875 38.765625,26.4164652 38.765625,26.96875 L38.765625,28.96875 C38.765625,29.5210347 38.3179098,29.96875 37.765625,29.96875 L30.765625,29.96875 C30.2133402,29.96875 29.765625,29.5210347 29.765625,28.96875 L29.765625,26.96875 C29.765625,26.4164652 30.2133402,25.96875 30.765625,25.96875 L37.765625,25.96875 Z M29.256625,4.60674998 C28.4770732,3.82687697 27.2133822,3.82508768 26.431625,4.60275 L24.324625,6.69975 L31.373625,13.74875 L33.472625,11.66075 C34.217625,10.91575 34.256625,9.74075002 33.594625,8.95475002 L33.477625,8.82675 L29.256625,4.60674998 Z" id="形状"></path>
        </g>
    </g>
</svg>