<?xml version="1.0" encoding="UTF-8"?>
<svg width="84px" height="105px" viewBox="0 0 84 105" version="1.1" xmlns="http://www.w3.org/2000/svg" xmlns:xlink="http://www.w3.org/1999/xlink">
    <!-- Generator: Sketch 64 (93537) - https://sketch.com -->
    <title>垃圾桶 (1)</title>
    <desc>Created with Sketch.</desc>
    <g id="页面-1" stroke="none" stroke-width="1" fill="none" fill-rule="evenodd">
        <g id="垃圾桶-(1)" fill-rule="nonzero">
            <path d="M74.5286613,13.1214575 L57.059704,13.1214575 L57.059704,11.0566802 C57.059704,6.61673414 53.4584113,3 49.0374213,3 L35.9625787,3 C31.5415887,3 27.940296,6.61673414 27.940296,11.0566802 L27.940296,13.1214575 L10.4713387,13.1214575 C6.34597721,13.1214575 3,16.4952767 3,20.6248313 L3,30.3954116 C3,31.731444 4.08845042,32.8245614 5.4187787,32.8245614 L9.65164144,32.8245614 L9.65164144,97.3319838 C9.65164144,100.462888 12.1779214,103 15.2954584,103 L69.7179792,103 C72.8355162,103 75.3617962,100.462888 75.3617962,97.3319838 L75.3617962,32.8245614 L79.5812213,32.8245614 C80.9115496,32.8245614 82,31.731444 82,30.3954116 L82,20.6248313 C82,16.4952767 78.6405851,13.1214575 74.5286613,13.1214575 Z" id="路径" fill="#D2E1FA"></path>
            <path d="M69.1111111,30 L69.1111111,97.7230769 C69.1111111,99.5390385 67.7240741,101 66,101 L69.8888889,101 C71.612963,101 73,99.5390385 73,97.7230769 L73,30 L69.1111111,30 Z" id="路径" fill="#72B0F7"></path>
            <path d="M14.6687117,102 C11.5374233,102 9,99.4686371 9,96.3448276 L9,63.4236453 C9,62.0906404 10.0932515,61 11.4294479,61 L16.396319,61 C20.4723926,61 23.792638,64.3123153 23.792638,68.3786535 L23.792638,99.5763547 C23.792638,100.90936 22.6993865,102 21.3631902,102 L14.6687117,102 Z M62.6368098,102 C61.3006135,102 60.207362,100.90936 60.207362,99.5763547 L60.207362,68.3786535 C60.207362,64.3123153 63.5276074,61 67.603681,61 L72.5705521,61 C73.9067485,61 75,62.0906404 75,63.4236453 L75,96.3448276 C75,99.4686371 72.4625767,102 69.3312883,102 L62.6368098,102 L62.6368098,102 Z" id="形状" fill="#72B0F7"></path>
            <path d="M69.1111111,64 L69.1111111,96.7821229 C69.1111111,98.5653631 67.7240741,100 66,100 L69.8888889,100 C71.612963,100 73,98.5653631 73,96.7821229 L73,64 L69.1111111,64 Z" id="路径" fill="#72B0F7"></path>
            <path d="M37.4635036,102 C36.1085766,102 35,100.90936 35,99.5763547 L35,68.3786535 C35,64.3123153 38.3667883,61 42.5,61 C46.6332117,61 50,64.3123153 50,68.3786535 L50,99.5763547 C50,100.90936 48.8914234,102 47.5364964,102 L37.4635036,102 L37.4635036,102 Z" id="路径" fill="#72B0F7"></path>
            <path d="M49.4215247,5 L47,5 C50.0941704,5 52.6098655,7.52702703 52.6098655,10.6351351 L52.6098655,13.3108108 L55.0313901,13.3108108 L55.0313901,10.6351351 C55.0179372,7.52702703 52.5156951,5 49.4215247,5 Z M74.941704,15.1351351 L70.9058296,15.1351351 C73.7040359,15.1351351 75.9641256,17.4054054 75.9641256,20.2162162 L75.9641256,30 L80,30 L80,20.2162162 C80,17.4054054 77.7399103,15.1351351 74.941704,15.1351351 L74.941704,15.1351351 Z" id="形状" fill="#72B0F7"></path>
            <path d="M74.0923077,10.1351351 L58.9884615,10.1351351 C58.8,4.51351351 54.1961538,0 48.5557692,0 L35.4576923,0 C29.8173077,0 25.2134615,4.51351351 25.025,10.1351351 L9.90769231,10.1351351 C4.44230769,10.1351351 0,14.5945946 0,20.0810811 L0,29.8648649 C0,32.5540541 2.16730769,34.7297297 4.84615385,34.7297297 L6.66346154,34.7297297 L6.66346154,96.8918919 C6.66346154,101.364865 10.2846154,105 14.7403846,105 L69.2865385,105 C73.7423077,105 77.3634615,101.364865 77.3634615,96.8918919 L77.3634615,34.7297297 L79.1538462,34.7297297 C81.8326923,34.7297297 84,32.5540541 84,29.8648649 L84,20.0810811 C84,14.5945946 79.5576923,10.1351351 74.0923077,10.1351351 Z M35.4442308,4.86486486 L48.5423077,4.86486486 C51.5173077,4.86486486 53.9538462,7.18918919 54.1288462,10.1351351 L29.8576923,10.1351351 C30.0461538,7.18918919 32.4692308,4.86486486 35.4442308,4.86486486 Z M21.4173077,100.135135 L14.7403846,100.135135 C12.95,100.135135 11.5096154,98.6891892 11.5096154,96.8918919 L11.5096154,63.8513514 L16.4634615,63.8513514 C19.1961538,63.8513514 21.4173077,66.0810811 21.4173077,68.8243243 L21.4173077,100.135135 Z M46.9538462,100.135135 L37.0461538,100.135135 L37.0461538,68.8243243 C37.0461538,66.0810811 39.2673077,63.8513514 42,63.8513514 C44.7326923,63.8513514 46.9538462,66.0810811 46.9538462,68.8243243 L46.9538462,100.135135 Z M72.4903846,96.8918919 C72.4903846,98.6891892 71.05,100.135135 69.2596154,100.135135 L62.5826923,100.135135 L62.5826923,68.8243243 C62.5826923,66.0810811 64.8038462,63.8513514 67.5365385,63.8513514 L72.4903846,63.8513514 L72.4903846,96.8918919 L72.4903846,96.8918919 Z M72.4903846,58.9864865 L67.5365385,58.9864865 C62.1384615,58.9864865 57.7365385,63.3918919 57.7365385,68.8243243 L57.7365385,100.135135 L51.7865385,100.135135 L51.7865385,68.8243243 C51.7865385,63.4054054 47.3980769,58.9864865 41.9865385,58.9864865 C36.5884615,58.9864865 32.1865385,63.3918919 32.1865385,68.8243243 L32.1865385,100.135135 L26.2365385,100.135135 L26.2365385,68.8243243 C26.2365385,63.4054054 21.8480769,58.9864865 16.4365385,58.9864865 L11.4826923,58.9864865 L11.4826923,48.9189189 L49.0403846,48.9189189 C50.3730769,48.9189189 51.4634615,47.8243243 51.4634615,46.4864865 C51.4634615,45.1486486 50.3730769,44.0540541 49.0403846,44.0540541 L11.4826923,44.0540541 L11.4826923,34.7297297 L72.4634615,34.7297297 L72.4634615,58.9864865 L72.4903846,58.9864865 Z M79.1538462,29.8648649 L4.84615385,29.8648649 L4.84615385,20.0810811 C4.84615385,17.2702703 7.10769231,15 9.90769231,15 L74.0923077,15 C76.8923077,15 79.1538462,17.2702703 79.1538462,20.0810811 L79.1538462,29.8648649 L79.1538462,29.8648649 Z" id="形状" fill="#453B56"></path>
            <path d="M54,46.5 C54,47.8807119 55.1192881,49 56.5,49 C57.8807119,49 59,47.8807119 59,46.5 C59,45.1192881 57.8807119,44 56.5,44 C55.1192881,44 54,45.1192881 54,46.5 L54,46.5 Z" id="路径" fill="#453B56"></path>
        </g>
    </g>
</svg>