<?xml version="1.0" encoding="UTF-8"?>
<svg width="96px" height="103px" viewBox="0 0 96 103" version="1.1" xmlns="http://www.w3.org/2000/svg" xmlns:xlink="http://www.w3.org/1999/xlink">
    <!-- Generator: Sketch 64 (93537) - https://sketch.com -->
    <title>家电</title>
    <desc>Created with Sketch.</desc>
    <g id="页面-1" stroke="none" stroke-width="1" fill="none" fill-rule="evenodd">
        <g id="家电" fill-rule="nonzero">
            <g id="冰箱" transform="translate(27.000000, 0.000000)">
                <polygon id="路径" fill="#DBCCAC" points="2.3598 2.33635135 66.0698 2.33635135 66.0698 91.4714865 2.3598 91.4714865"></polygon>
                <polygon id="路径" fill="#AC8B73" points="4.4298 31.7417568 65.1498 31.7417568 65.1498 52.8768919 4.4298 52.8768919"></polygon>
                <path d="M62.0448,0.0390540541 L6.3848,0.0390540541 C2.89317535,0.0428524111 0.0636028257,2.86909994 0.0598,6.35662162 L0.0598,87.4512162 C0.0633864909,90.1866286 1.82627707,92.6100716 4.4298,93.4586486 L4.4298,98.7837838 C4.4298,100.052546 5.45954508,101.081081 6.7298,101.081081 C8.00005492,101.081081 9.0298,100.052546 9.0298,98.7837838 L9.0298,93.7687838 L58.765,93.7687838 L58.765,98.7837838 C58.765,100.052546 59.7947451,101.081081 61.065,101.081081 C62.3352549,101.081081 63.365,100.052546 63.365,98.7837838 L63.365,93.6297973 C66.2815589,93.0040275 68.3659368,90.4307983 68.3698,87.4512162 L68.3698,6.35662162 C68.3659972,2.86909994 65.5364246,0.0428524111 62.0448,0.0390540541 L62.0448,0.0390540541 Z M6.3848,4.63364865 L62.0448,4.63364865 C62.9974912,4.63364865 63.7698,5.40504992 63.7698,6.35662162 L63.7698,29.4444595 L4.6598,29.4444595 L4.6598,6.35662162 C4.6598,5.40504992 5.43210881,4.63364865 6.3848,4.63364865 Z M63.7376,34.0390541 L63.7376,50.5795946 L5.07035,50.5795946 L5.07035,34.0390541 L63.7376,34.0390541 Z M62.0448,89.1741892 L6.3848,89.1741892 C5.43210881,89.1741892 4.6598,88.4027879 4.6598,87.4512162 L4.6598,55.1741892 L63.7698,55.1741892 L63.7698,87.4512162 C63.7698,88.4027879 62.9974912,89.1741892 62.0448,89.1741892 Z" id="形状" fill="#887262"></path>
                <path d="M11.88755,23.0304054 C13.1578049,23.0304054 14.18755,22.0018704 14.18755,20.7331081 L14.18755,14.214527 C14.18755,12.9457648 13.1578049,11.9172297 11.88755,11.9172297 C10.6172951,11.9172297 9.58755,12.9457648 9.58755,14.214527 L9.58755,20.7331081 C9.58755,22.0018704 10.6172951,23.0304054 11.88755,23.0304054 L11.88755,23.0304054 Z M11.88755,57.6334459 C10.6172951,57.6334459 9.58755,58.661981 9.58755,59.9307432 L9.58755,66.4493243 C9.58755,67.7180866 10.6172951,68.7466216 11.88755,68.7466216 C13.1578049,68.7466216 14.18755,67.7180866 14.18755,66.4493243 L14.18755,59.9307432 C14.18755,58.661981 13.1578049,57.6334459 11.88755,57.6334459 Z" id="形状" fill="#887262"></path>
                <path d="M56.81,9.24087838 C53.7211,8.11405405 46.61065,8.48162162 46.30935,8.4977027 C45.8984946,8.51986281 45.5306847,8.7592708 45.3444708,9.125744 C45.1582568,9.49221719 45.1819292,9.9300796 45.4065708,10.2743927 C45.6312123,10.6187057 46.0226946,10.8171601 46.43355,10.795 C48.35405,10.6916216 53.82115,10.5985811 56.0211,11.4014865 C58.13365,12.1722297 57.98645,14.6670946 57.9761,14.767027 C57.9513063,15.0707732 58.0483781,15.3719105 58.2459462,15.6041464 C58.4435143,15.8363823 58.7253824,15.9806788 59.0295,16.0052766 L59.1238,16.0052766 C59.7242598,16.0072407 60.2251657,15.5474492 60.2738,14.9496622 C60.38765,13.4564189 59.81955,10.3378378 56.81,9.24087838 L56.81,9.24087838 Z" id="路径" fill="#FFFFFF"></path>
                <path d="M41.4598,9.57628378 C41.4598,10.2214494 41.9834254,10.7444595 42.62935,10.7444595 C43.2752746,10.7444595 43.7989,10.2214494 43.7989,9.57628378 C43.7989,8.93111817 43.2752746,8.40810811 42.62935,8.40810811 C41.9834254,8.40810811 41.4598,8.93111817 41.4598,9.57628378 Z" id="路径" fill="#FFFFFF"></path>
            </g>
            <g id="电视" transform="translate(0.000000, 39.000000)">
                <polygon id="路径" fill="#F4C959" points="68.9172 13.6698556 68.9172 62.9742034 0.8372 62.9742034 0.8372 13.6698556"></polygon>
                <path d="M67.3931462,62.9742034 L2.36125179,62.9742034 C1.51937984,62.9742034 0.8372,62.3503672 0.8372,61.5789111 L0.8372,15.0651478 C0.8372,14.2944014 1.51937984,13.6698556 2.36125179,13.6698556 L67.3931462,13.6698556 C68.2357934,13.6698556 68.9171987,14.2944014 68.9171987,15.0651478 L68.9171987,61.5789111 C68.9179732,62.3503672 68.2357934,62.9742034 67.3931462,62.9742034 Z M3.88530358,60.1836189 L65.8690944,60.1836189 L65.8690944,16.4604401 L3.88530358,16.4604401 L3.88530358,60.1836189 L3.88530358,60.1836189 Z" id="形状" stroke="#543B2A" fill="#543B2A"></path>
                <path d="M43.5376135,56.582899 L7.87115329,56.582899 C7.03485966,56.582899 6.3572,55.9668571 6.3572,55.2050397 L6.3572,22.7454487 C6.3572,21.9843321 7.03485966,21.3675893 7.87115329,21.3675893 L43.5376135,21.3675893 C44.3746772,21.3675893 45.0515668,21.9843321 45.0515668,22.7454487 L45.0515668,55.2050397 C45.0515668,55.9668571 44.3746772,56.582899 43.5376135,56.582899 Z M9.38510659,53.8271803 L42.0236602,53.8271803 L42.0236602,24.123308 L9.38510659,24.123308 L9.38510659,53.8271803 L9.38510659,53.8271803 Z M54.8075557,32.1605873 C51.9675457,32.1605873 49.6558022,30.0573544 49.6558022,27.4712399 C49.6558022,24.8851255 51.9667756,22.7818926 54.8075557,22.7818926 C57.6483359,22.7818926 59.9593093,24.8851255 59.9593093,27.4712399 C59.9593093,30.0573544 57.6475658,32.1605873 54.8075557,32.1605873 L54.8075557,32.1605873 Z M54.8075557,25.5383121 C53.6362826,25.5383121 52.6844788,26.4052562 52.6844788,27.4712399 C52.6844788,28.5372237 53.6370527,29.4041678 54.8075557,29.4041678 C55.9780588,29.4041678 56.9306327,28.5372237 56.9306327,27.4712399 C56.9306327,26.4052562 55.9788289,25.5383121 54.8075557,25.5383121 Z M60.0432467,50.8380806 L49.5718648,50.8380806 C48.7348011,50.8380806 48.0579115,50.2220387 48.0579115,49.4602212 C48.0579115,48.6984038 48.7348011,48.0823619 49.5718648,48.0823619 L60.0432467,48.0823619 C60.8803104,48.0823619 61.5572,48.6984038 61.5572,49.4602212 C61.5572,50.2220387 60.8803104,50.8380806 60.0432467,50.8380806 Z M42.2231078,15.9872099 C41.7910997,15.9872099 41.3637121,15.8211097 41.0641557,15.4973198 C40.5258783,14.9156193 40.6075055,14.0458718 41.2458917,13.555281 L57.3326081,1.21201605 C57.9709943,0.720023542 58.9266484,0.796415541 59.4664659,1.37741524 C60.0047433,1.95911578 59.9231161,2.82886321 59.2847299,3.31945403 L43.1980136,15.6634198 C42.9252108,15.8726723 42.5798778,15.9873658 42.2231078,15.9872099 L42.2231078,15.9872099 Z" id="形状" stroke="#543B2A" fill="#543B2A"></path>
                <path d="M67.3931462,62.9742034 L2.36125179,62.9742034 C1.51937984,62.9742034 0.8372,62.3503672 0.8372,61.5789111 L0.8372,15.0651478 C0.8372,14.2944014 1.51937984,13.6698556 2.36125179,13.6698556 L67.3931462,13.6698556 C68.2357934,13.6698556 68.9171987,14.2944014 68.9171987,15.0651478 L68.9171987,61.5789111 C68.9179732,62.3503672 68.2357934,62.9742034 67.3931462,62.9742034 Z M3.88530358,60.1836189 L65.8690944,60.1836189 L65.8690944,16.4604401 L3.88530358,16.4604401 L3.88530358,60.1836189 L3.88530358,60.1836189 Z" id="形状" fill="#543B2A"></path>
                <polygon id="路径" stroke="#543B2A" stroke-width="2" fill="#C0C0C0" points="7.2772 22.8002903 43.1572 22.8002903 43.1572 54.7568121 7.2772 54.7568121"></polygon>
                <path d="M43.4853739,55.6698556 L7.86902614,55.6698556 C7.03390753,55.6698556 6.3572,55.0629043 6.3572,54.3123287 L6.3572,22.3317302 C6.3572,21.5818451 7.03390753,20.9742034 7.86902614,20.9742034 L43.4853739,20.9742034 C44.3212615,20.9742034 44.9972,21.5818451 44.9972,22.3317302 L44.9972,54.3123287 C44.9972,55.0629043 44.3212615,55.6698556 43.4853739,55.6698556 Z M9.38085228,52.9548018 L41.9735477,52.9548018 L41.9735477,23.6892571 L9.38085228,23.6892571 L9.38085228,52.9548018 L9.38085228,52.9548018 Z" id="形状" stroke="#543B2A" fill="#543B2A"></path>
            </g>
        </g>
    </g>
</svg>