<?xml version="1.0" encoding="UTF-8"?>
<svg width="108px" height="107px" viewBox="0 0 108 107" version="1.1" xmlns="http://www.w3.org/2000/svg" xmlns:xlink="http://www.w3.org/1999/xlink">
    <!-- Generator: Sketch 64 (93537) - https://sketch.com -->
    <title>塑料垃圾</title>
    <desc>Created with Sketch.</desc>
    <g id="页面-1" stroke="none" stroke-width="1" fill="none" fill-rule="evenodd">
        <g id="塑料垃圾" transform="translate(1.000000, 1.000000)" fill-rule="nonzero">
            <path d="M20.0837179,103 C11.5182927,103 4.57201714,95.3147875 4.57201714,85.8381821 L1,18.1618179 C1,16.1743791 1.305516,14.2657305 1.86741018,12.4902374 C3.98476796,5.79973504 9.74262118,1 16.5117007,1 C21.3766707,1 25.0253983,1 27.4578833,1 C34.7979757,1 45.8081144,1 60.4882993,1 C69.0537245,1 76,8.68521249 76,18.1618179 L72.4279829,85.8381821 C72.4403428,95.3147875 65.4940672,103 56.9286421,103 L20.0837179,103 Z" id="路径" stroke="#373737" fill="#A26967"></path>
            <path d="M57.5542438,105 L20.4582004,105 C11.1748564,105 3.6212508,96.6921269 3.59636248,86.4649432 L0,18.658441 L0,18.5761849 C0,8.33529181 7.56604978,0 16.8618379,0 L61.1381621,0 C70.4339502,0 78,8.33529181 78,18.5761849 L78,18.658441 L74.4160817,86.4649432 C74.3911934,96.6921269 66.8375877,105 57.5542438,105 Z M3,18.8699545 L6.59464986,87.0060614 L6.59464986,87.0887175 C6.59464986,95.8640309 13.0376555,103 20.960811,103 L58.039189,103 C65.9623445,103 72.4053501,95.8640309 72.4053501,87.0887175 L72.4053501,87.0060614 L76,18.8699545 C75.9626853,10.1221931 69.5321179,3 61.6214006,3 L17.3661612,3 C9.45544386,3 3.01243823,10.1221931 3,18.8699545 Z" id="形状" stroke="#373737" stroke-width="2" fill="#373737"></path>
            <path d="M2,39 L4.48990328,85.8960818 C4.48990328,95.3407155 11.4517224,103 20.0363143,103 L56.9636857,103 C65.5482776,103 72.5100967,95.3407155 72.5100967,85.8960818 L75,39 L2,39 Z" id="路径" stroke="#373737" stroke-width="4" fill="#B24C37"></path>
            <path d="M56.8545236,105 L20.1577866,105 C10.9743697,105 3.50207197,96.7054137 3.47745155,86.4945863 L1.00309927,39.4371808 C0.978478845,39.06762 1.10158095,38.6980592 1.33547495,38.4243105 C1.56936894,38.1505618 1.88943441,38 2.2341203,38 L74.7658797,38 C75.1105656,38 75.4306311,38.1505618 75.6645251,38.4243105 C75.8984191,38.6980592 76.0215212,39.06762 75.9969007,39.4371808 L73.5348587,86.4945863 C73.5102382,96.7054137 66.0379406,105 56.8545236,105 Z M4,40 L6.402746,85.9897687 L6.402746,86.0725089 C6.402746,94.8567616 12.7854251,102 20.6343954,102 L57.3656046,102 C65.2145749,102 71.597254,94.8567616 71.597254,86.0725089 L71.597254,85.9897687 L74,40 L4,40 Z" id="形状" stroke="#373737" fill="#373737"></path>
            <path d="M59.6420805,30 L18.3579195,30 C18.1604467,30 18,29.8229216 18,29.6049789 L18,1 L60,1 L60,29.6049789 C60,29.8229216 59.8395533,30 59.6420805,30 Z" id="路径" stroke="#373737" fill="#88A7CE"></path>
            <path d="M59.3888426,32 L17.6111574,32 C16.7243963,32 16,31.2030915 16,30.2275655 L16,1.37398025 C16,0.618291112 16.5620316,0 17.2489592,0 L59.7510408,0 C60.4379684,0 61,0.618291112 61,1.37398025 L61,30.2275655 C61,31.2030915 60.2756037,32 59.3888426,32 Z M18.510408,29.2520395 L58.5020816,29.2520395 L58.5020816,2.7479605 L18.510408,2.7479605 L18.510408,29.2520395 Z" id="形状" stroke="#373737" fill="#373737"></path>
            <g id="水瓶" transform="translate(60.500000, 89.500000) rotate(90.000000) translate(-60.500000, -89.500000) translate(47.000000, 45.000000)">
                <path d="M17.1487685,0 L9.85123153,0 C9.38128079,0 9,0.425100765 9,0.949062173 L9,6.74229585 C9,7.26625726 9.38128079,7.69135802 9.85123153,7.69135802 L17.1487685,7.69135802 C17.6187192,7.69135802 18,7.26625726 18,6.74229585 L18,0.949062173 C18,0.425100765 17.6187192,0 17.1487685,0 Z" id="路径" fill="#CFCEB8"></path>
                <path d="M16.8821918,8.79012346 L10.1178082,8.79012346 C9.50136986,8.79012346 9,8.16518461 9,7.39681717 L9,1.39330628 C9,0.624938847 9.50136986,0 10.1178082,0 L16.8821918,0 C17.4986301,0 18,0.624938847 18,1.39330628 L18,7.39681717 C18,8.16518461 17.4986301,8.79012346 16.8821918,8.79012346 Z M10.1260274,0.819591931 C9.87123288,0.819591931 9.66575342,1.07571441 9.66575342,1.39330628 L9.66575342,7.39681717 C9.66575342,7.71440905 9.87123288,7.97053153 10.1260274,7.97053153 L16.890411,7.97053153 C17.1452055,7.97053153 17.3506849,7.71440905 17.3506849,7.39681717 L17.3506849,1.39330628 C17.3506849,1.07571441 17.1452055,0.819591931 16.890411,0.819591931 L10.1260274,0.819591931 Z" id="形状" stroke="#373737" stroke-width="3" fill="#303542"></path>
                <path d="M20.7706543,11.7996688 L18.9319233,8.69887233 C18.5538665,8.05328064 18.0297422,7.69135802 17.4970258,7.69135802 L10.5115664,7.69135802 C9.97025777,7.69135802 9.45472571,8.05328064 9.07666887,8.68909064 L1.59286186,21.2879103 C1.21480502,21.933502 1,22.8040726 1,23.7137699 L1,84.4776423 C1,86.3655089 1.9107733,87.9012346 3.02775942,87.9012346 L24.9722406,87.9012346 C26.0978189,87.9012346 27,86.3655089 27,84.4776423 L27,23.7137699 C27,22.8040726 26.785195,21.933502 26.4071381,21.297692 L23.2452082,15.9666697" id="路径" stroke="#373737" stroke-width="4" fill="#E5E9EC"></path>
                <path d="M24.6007727,89 L2.3992273,89 C1.05183516,89 0,87.3207998 0,85.1702451 L0,24.1691239 C0,23.1773156 0.234707019,22.2346067 0.660656793,21.5177551 L8.23213136,8.86974414 C8.68415969,8.12343293 9.31873793,7.69135802 9.97070187,7.69135802 L17.037991,7.69135802 C17.6986478,7.69135802 18.333226,8.12343293 18.7765615,8.86974414 L20.6368319,11.9826475 C20.7411462,12.1594054 20.7063748,12.4049025 20.5412106,12.532561 C20.3847392,12.6503996 20.1674179,12.6111201 20.0544108,12.4245423 L18.1941404,9.31163893 C17.8725048,8.7715453 17.4552479,8.47694877 17.0292981,8.47694877 L9.96200901,8.47694877 C9.53605924,8.47694877 9.11880232,8.7715453 8.79716677,9.31163893 L1.22569221,21.9596499 C0.877978107,22.5390231 0.686735351,23.3442536 0.686735351,24.1691239 L0.686735351,85.1702451 C0.686735351,86.8199857 1.46909208,88.2144093 2.39053445,88.2144093 L24.5920798,88.2144093 C25.5222151,88.2144093 26.2958789,86.8199857 26.2958789,85.1702451 L26.2958789,24.1691239 C26.2958789,23.3442536 26.0959433,22.5390231 25.7569221,21.9596499 L22.5666452,16.6176329 C22.462331,16.4408749 22.4971024,16.1953778 22.6622666,16.0677193 C22.8187379,15.9498807 23.0360592,15.9891603 23.1490663,16.1757381 L26.3393432,21.5177551 C26.765293,22.2346067 27,23.1674957 27,24.1691239 L27,85.1702451 C27,87.3207998 25.9481648,89 24.6007727,89 L24.6007727,89 Z" id="路径" stroke="#373737" fill="#303542"></path>
                <polygon id="路径" stroke="#373737" stroke-width="4" fill="#FFD83B" points="1 37.3580247 27 37.3580247 27 51.6419753 1 51.6419753"></polygon>
                <path d="M27,51.6419753 L0,51.6419753 L0,36.2592593 L27,36.2592593 L27,51.6419753 Z M0.695428203,50.8591399 L26.3045718,50.8591399 L26.3045718,37.0420947 L0.695428203,37.0420947 L0.695428203,50.8591399 Z" id="形状" stroke="#373737" fill="#303542"></path>
                <line x1="9" y1="45.0493827" x2="18" y2="45.0493827" id="路径" stroke="#373737" stroke-width="4" fill="#FFD83B"></line>
                <path d="M17.6697248,45.0493827 L9.33027523,45.0493827 C9.14862385,45.0493827 9,44.8021605 9,44.5 C9,44.1978395 9.14862385,43.9506173 9.33027523,43.9506173 L17.6697248,43.9506173 C17.8513761,43.9506173 18,44.1978395 18,44.5 C18,44.8021605 17.8513761,45.0493827 17.6697248,45.0493827 Z" id="路径" fill="#303542"></path>
            </g>
        </g>
    </g>
</svg>