<?xml version="1.0" encoding="UTF-8"?>
<svg width="112px" height="125px" viewBox="0 0 112 125" version="1.1" xmlns="http://www.w3.org/2000/svg" xmlns:xlink="http://www.w3.org/1999/xlink">
    <!-- Generator: Sketch 64 (93537) - https://sketch.com -->
    <title>纸箱</title>
    <desc>Created with Sketch.</desc>
    <g id="页面-1" stroke="none" stroke-width="1" fill="none" fill-rule="evenodd">
        <g id="纸箱" transform="translate(1.000000, 1.000000)" fill-rule="nonzero">
            <polygon id="路径" stroke="#979797" stroke-width="2" fill="#D6AB7F" points="55.4 1.125 36.5 11.225 32.4 15.825 23.4 18.225 1 30.125 1 88.825 55.4 121.125 109 88.825 109 30.125"></polygon>
            <polygon id="路径" fill="#FFFFFF" points="23.4 18.225 75.9 48.125 75.9 60.125 89.3 52.825 89.3 40.725 36.5 11.225"></polygon>
            <path d="M55.4,122.125 C55.2,122.125 55,122.125 54.9,122.025 L0.5,89.725 C0.2,89.525 0,89.125 0,88.825 L0,30.125 C0,29.725 0.2,29.425 0.5,29.225 C0.8,29.025 1.2,29.025 1.5,29.225 L55.9,58.225 C56.4,58.525 56.6,59.125 56.3,59.625 C56,60.125 55.4,60.325 54.9,60.125 L2,31.825 L2,88.225 L55.4,119.925 L108,88.225 L108,30.125 C108,29.525 108.4,29.125 109,29.125 C109.6,29.125 110,29.525 110,30.125 L110,88.825 C110,89.225 109.8,89.525 109.5,89.725 L55.9,122.025 C55.8,122.125 55.6,122.125 55.4,122.125 Z" id="路径" fill="#6A576D"></path>
            <polygon id="路径" fill="#A6896D" points="55.4 121.125 109 88.825 109 30.125 55.4 59.225"></polygon>
            <path d="M23.4,18.225 L36,11.525 L23.4,18.225 Z" id="路径" fill="#FFFFFF"></path>
            <path d="M55.4,122.125 C55.2,122.125 55,122.125 54.9,122.025 L0.5,89.725 C0.2,89.525 0,89.125 0,88.825 L0,30.125 C0,29.725 0.2,29.425 0.5,29.225 L22.9,17.225 C23.4,16.925 24,17.125 24.3,17.625 C24.6,18.125 24.4,18.725 23.9,19.025 L2,30.725 L2,88.225 L55.4,119.925 L108,88.225 L108,30.725 L55.4,2.225 L36.9,12.125 C36.4,12.425 35.8,12.225 35.5,11.725 C35.2,11.225 35.4,10.625 35.9,10.325 L54.9,0.225 C55.2,0.025 55.6,0.025 55.8,0.225 L109.4,29.225 C109.7,29.425 109.9,29.725 109.9,30.125 L109.9,88.825 C109.9,89.225 109.7,89.525 109.4,89.725 L55.8,122.025 C55.8,122.125 55.6,122.125 55.4,122.125 Z" id="路径" stroke="#464646" stroke-width="2" fill="#6A576D"></path>
            <path d="M75.9,61.125 C75.7,61.125 75.5,61.125 75.4,61.025 C75.1,60.825 74.9,60.525 74.9,60.125 L74.9,48.625 L22.9,19.025 C22.6,18.825 22.4,18.525 22.4,18.125 C22.4,17.725 22.6,17.425 22.9,17.225 L35.9,10.325 C36.2,10.125 36.6,10.125 36.9,10.325 L89.8,39.825 C90.1,40.025 90.3,40.325 90.3,40.725 L90.3,52.825 C90.3,53.225 90.1,53.525 89.8,53.725 L76.4,61.025 C76.3,61.125 76.1,61.125 75.9,61.125 Z M25.5,18.225 L76.4,47.225 C76.7,47.425 76.9,47.725 76.9,48.125 L76.9,58.525 L88.3,52.325 L88.3,41.325 L36.5,12.425 L25.5,18.225 Z" id="形状" stroke="#464646" stroke-width="2" fill="#6A576D"></path>
            <path d="M55.4,122.125 C55.2,122.125 55,122.125 54.9,122.025 L0.5,89.725 C0.2,89.525 0,89.125 0,88.825 L0,30.125 C0,29.725 0.2,29.425 0.5,29.225 C0.8,29.025 1.2,29.025 1.5,29.225 L55.4,58.025 L75,47.425 C75.5,47.125 76.1,47.325 76.4,47.825 C76.7,48.325 76.5,48.925 76,49.225 L55.9,60.125 C55.6,60.325 55.2,60.325 55,60.125 L2,31.825 L2,88.225 L55.4,119.925 L108,88.225 L108,31.825 L89.9,41.625 C89.4,41.925 88.8,41.725 88.5,41.225 C88.2,40.725 88.4,40.125 88.9,39.825 L108.5,29.225 C108.8,29.025 109.2,29.025 109.5,29.225 C109.8,29.425 110,29.725 110,30.125 L110,88.825 C110,89.225 109.8,89.525 109.5,89.725 L55.9,122.025 C55.8,122.125 55.6,122.125 55.4,122.125 Z M23.4,19.225 C23,19.225 22.7,19.025 22.5,18.725 C22.4,18.625 22.4,18.425 22.4,18.225 C22.4,17.825 22.6,17.525 22.9,17.325 L35.4,10.625 C35.9,10.325 36.5,10.525 36.8,11.025 C36.9,11.125 36.9,11.325 36.9,11.525 C36.9,11.925 36.7,12.225 36.4,12.425 L23.9,19.125 C23.8,19.125 23.6,19.225 23.4,19.225 L23.4,19.225 Z" id="形状" stroke="#464646" stroke-width="2" fill="#6A576D"></path>
            <path d="M55.4,122.125 C54.8,122.125 54.4,121.725 54.4,121.125 L54.4,59.225 C54.4,58.625 54.8,58.225 55.4,58.225 C56,58.225 56.4,58.625 56.4,59.225 L56.4,121.125 C56.4,121.725 56,122.125 55.4,122.125 Z" id="路径" stroke="#464646" stroke-width="2" fill="#6A576D"></path>
        </g>
    </g>
</svg>