<?xml version="1.0" encoding="UTF-8"?>
<svg width="112px" height="103px" viewBox="0 0 112 103" version="1.1" xmlns="http://www.w3.org/2000/svg" xmlns:xlink="http://www.w3.org/1999/xlink">
    <!-- Generator: Sketch 64 (93537) - https://sketch.com -->
    <title>废铝</title>
    <desc>Created with Sketch.</desc>
    <g id="页面-1" stroke="none" stroke-width="1" fill="none" fill-rule="evenodd">
        <g id="废铝" transform="translate(1.000000, 0.000000)" fill-rule="nonzero">
            <path d="M72.8617675,48.0530452 L40.503254,48.0530452 C37.5187309,48.0530452 35.6337689,43.8172888 36.5762499,39.5815324 L44.7444184,6.85068762 C45.372739,4.54027505 46.9435406,3 48.6714224,3 L64.5365189,3 C66.2644007,3 67.9922825,4.54027505 68.463523,6.85068762 L78.5166534,39.1964637 C79.6162146,43.43222 75.8462906,48.0530452 72.8617675,48.0530452 L72.8617675,48.0530452 Z M45.5298192,101 L13.1713056,101 C10.1867825,101 8.30182055,96.7642436 9.24430153,92.5284872 L17.41247,59.7976424 C18.0407907,57.4872299 19.6115923,55.9469548 21.3394741,55.9469548 L37.3616507,55.9469548 C39.0895325,55.9469548 40.8174143,57.4872299 41.2886548,59.7976424 L51.3417852,91.9508841 C52.2842662,96.1866405 48.5143423,101 45.5298192,101 Z M101.450357,101 L69.0918436,101 C66.1073205,101 64.2223586,96.7642436 65.1648396,92.5284872 L73.333008,59.7976424 C73.9613287,57.4872299 75.5321303,55.9469548 77.2600121,55.9469548 L93.1251086,55.9469548 C94.8529904,55.9469548 96.5808722,57.4872299 97.0521126,59.7976424 L106.791083,91.9508841 C107.890644,95.8015717 104.43488,101 101.450357,101 L101.450357,101 Z" id="形状" fill="#3C3C3C"></path>
            <path d="M74.6134803,50.4057279 L35.0564773,50.4057279 C32.5646976,50.4057279 30.2286541,49.0692124 28.9827642,46.5871122 C27.5811381,44.1050119 27.2696656,41.0501193 28.204083,38.1861575 L38.1712019,5.72792363 C39.2613555,2.29116945 42.0646077,0 45.1793324,0 L64.6463614,0 C67.7610861,0 70.7200745,2.29116945 71.6544919,5.72792363 L77.2609962,24.24821 C77.7282049,25.7756563 77.10526,27.3031026 75.8593701,27.875895 C74.6134803,28.4486874 73.3675904,27.6849642 72.9003817,26.1575179 L67.2938774,7.6372315 C66.9824049,6.49164678 65.8922513,5.72792363 64.6463614,5.72792363 L45.0235961,5.72792363 C43.7777063,5.72792363 42.6875527,6.49164678 42.3760802,7.6372315 L32.4089613,40.0954654 C32.0974889,41.2410501 32.0974889,42.3866348 32.7204338,43.3412888 C33.1876425,44.2959427 34.1220599,44.6778043 35.0564773,44.6778043 L74.6134803,44.6778043 C75.5478977,44.6778043 76.4823151,44.1050119 76.9495238,43.3412888 C77.4167325,42.3866348 77.5724687,41.2410501 77.2609962,40.0954654 L75.2364252,33.7947494 C74.7692165,32.2673031 75.3921615,30.7398568 76.6380513,30.1670644 C77.8839412,29.5942721 79.129831,30.3579952 79.5970397,31.8854415 L81.4658745,38.1861575 C82.4002919,41.0501193 82.0888194,44.2959427 80.6871934,46.5871122 C79.2855673,49.0692124 77.10526,50.4057279 74.6134803,50.4057279 Z M7.33542791,80 C7.02395544,80 6.71248298,80 6.55674674,79.8090692 C5.31085688,79.2362768 4.68791196,77.5178998 5.15512065,76.1813842 L5.31085688,75.6085919 C5.77806558,74.0811456 7.17969167,73.3174224 8.2698453,73.8902148 C9.51573516,74.4630072 10.1386801,76.1813842 9.67147139,77.5178998 L9.51573516,78.0906921 C9.20426269,79.2362768 8.2698453,80 7.33542791,80 L7.33542791,80 Z" id="形状" fill="#3C3C3C"></path>
            <path d="M47.0853089,102 L7.43349042,102 C4.92586553,102 2.5749672,100.674242 1.32115475,98.2121212 C-0.0893842452,95.75 -0.402837356,92.719697 0.537521977,89.8787879 L2.41824064,83.6287879 C2.88842031,82.1136364 4.29895931,81.3560606 5.3960452,81.9242424 C6.64985764,82.4924242 7.27676386,84.1969697 6.8065842,85.5227273 L4.92586553,91.7727273 C4.61241242,92.9090909 4.61241242,94.0454545 5.23931864,94.9924242 C5.70949831,95.9393939 6.64985764,96.3181818 7.59021697,96.3181818 L47.3987621,96.3181818 C48.3391214,96.3181818 49.2794807,95.75 49.7496604,94.9924242 C50.2198401,94.0454545 50.3765666,92.9090909 50.0631135,91.7727273 L40.032614,59.5757576 C39.7191608,58.4393939 38.622075,57.6818182 37.3682625,57.6818182 L17.46399,57.6818182 C16.2101775,57.6818182 15.1130916,58.4393939 14.7996385,59.5757576 L11.1949277,71.3181818 C10.7247481,72.8333333 9.31420908,73.5909091 8.21712319,73.0227273 C6.96331075,72.4545455 6.33640453,70.75 6.8065842,69.4242424 L10.411295,57.6818182 C11.5083809,54.2727273 14.3294589,52 17.46399,52 L37.0548094,52 C40.1893405,52 43.1671451,54.2727273 44.1075044,57.6818182 L54.1380039,89.8787879 C55.0783633,92.719697 54.7649102,95.9393939 53.3543712,98.2121212 C51.9438322,100.674242 49.5929338,102 47.0853089,102 L47.0853089,102 Z M102.253056,102 L62.6012379,102 C60.0936131,102 57.7427147,100.674242 56.4889023,98.2121212 C55.0783633,95.75 54.7649102,92.719697 55.7052695,89.8787879 L65.735769,57.6818182 C66.8328549,54.2727273 69.6539329,52 72.788464,52 L92.3792835,52 C95.5138146,52 98.4916191,54.2727273 99.4319785,57.6818182 L109.462478,89.8787879 C110.402837,92.719697 110.089384,95.75 108.678845,98.2121212 C107.11158,100.484848 104.917408,102 102.253056,102 L102.253056,102 Z M72.6317375,57.4924242 C71.377925,57.4924242 70.2808392,58.25 69.967386,59.3863636 L59.9368865,91.5833333 C59.6234334,92.719697 59.6234334,93.8560606 60.2503396,94.8030303 C60.7205193,95.75 61.6608786,96.1287879 62.6012379,96.1287879 L102.409783,96.1287879 C103.350142,96.1287879 104.290502,95.5606061 104.760681,94.8030303 C105.230861,93.8560606 105.387588,92.719697 105.074134,91.5833333 L95.0436349,59.3863636 C94.7301818,58.25 93.6330959,57.4924242 92.3792835,57.4924242 L72.6317375,57.4924242 Z" id="形状" stroke="#888888" fill="#3C3C3C"></path>
            <path d="M47.8319185,97 L15.3429542,97 C14.0933786,97 13,95.6610738 13,94.1308725 C13,92.6006711 14.0933786,91.261745 15.3429542,91.261745 L47.8319185,91.261745 C49.0814941,91.261745 50.1748727,92.6006711 50.1748727,94.1308725 C50.1748727,95.6610738 49.0814941,97 47.8319185,97 L47.8319185,97 Z M74.6977929,45.738255 L42.2088285,45.738255 C40.959253,45.738255 39.8658744,44.3993289 39.8658744,42.8691275 C39.8658744,41.3389262 40.959253,40 42.2088285,40 L74.6977929,40 C75.9473684,40 77.040747,41.3389262 77.040747,42.8691275 C77.040747,44.3993289 75.9473684,45.738255 74.6977929,45.738255 Z M102.657046,97 L70.1680815,97 C68.9185059,97 67.8251273,95.6610738 67.8251273,94.1308725 C67.8251273,92.6006711 68.9185059,91.261745 70.1680815,91.261745 L102.657046,91.261745 C103.906621,91.261745 105,92.6006711 105,94.1308725 C105,95.6610738 103.906621,97 102.657046,97 Z" id="形状" fill="#676767"></path>
        </g>
    </g>
</svg>