<?xml version="1.0" encoding="UTF-8"?>
<svg width="96px" height="114px" viewBox="0 0 96 114" version="1.1" xmlns="http://www.w3.org/2000/svg" xmlns:xlink="http://www.w3.org/1999/xlink">
    <!-- Generator: Sketch 64 (93537) - https://sketch.com -->
    <title>毛衣</title>
    <desc>Created with Sketch.</desc>
    <g id="页面-1" stroke="none" stroke-width="1" fill="none" fill-rule="evenodd">
        <g id="毛衣" fill-rule="nonzero">
            <path d="M92.5059937,22.9387223 C92.3228705,15.0795306 87.322197,8.23859192 80.0676989,5.92959583 L70.0381792,2.73142112 C68.530934,2.24380704 66.9532567,2 65.3755794,2 L30.6103342,2 C29.0326569,2 27.4549796,2.24380704 25.9477344,2.73142112 L15.9182147,5.92959583 C8.66371659,8.23859192 3.66304313,15.0795306 3.47991988,22.9387223 L2,86.9452412 C1.97267464,88.2790091 2.64882204,89.4837027 3.74756156,90.1290743 L3.74756156,96.2816167 C3.74756156,97.6440678 4.48005457,98.863103 5.64922611,99.4654498 L17.6226696,101.186441 C17.8057928,101.215124 17.9607433,101.35854 17.9889161,101.559322 C18.2706442,103.352021 19.6792846,112 21.3837395,112 L74.6162605,112 C76.3207154,112 77.7293558,103.352021 78.0110839,101.559322 C78.0392567,101.372881 78.1942072,101.215124 78.3773304,101.186441 L90.3507739,99.4511082 C91.5199454,98.8487614 92.2524384,97.6297262 92.2524384,96.2672751 L92.2524384,90.1290743 C93.351178,89.4837027 94.0273254,88.2790091 94,86.9452412 L92.5059937,22.9387223 Z" id="路径" fill="#FEBFCF"></path>
            <path d="M33,7 C33,10.3137085 39.2680135,13 47,13 C54.7319865,13 61,10.3137085 61,7 C61,3.6862915 54.7319865,1 47,1 C39.2680135,1 33,3.6862915 33,7 Z" id="路径" fill="#FE8EA8"></path>
            <path d="M74.4834123,50.7006803 L20.2369668,50.7006803 C19.314218,50.7006803 18.5592417,49.9108844 18.5592417,48.9455782 L18.5592417,40.755102 C18.5592417,39.7897959 19.314218,39 20.2369668,39 L74.4834123,39 C75.4061611,39 76.1611374,39.7897959 76.1611374,40.755102 L76.1611374,48.9455782 C76.1611374,49.9108844 75.4061611,50.7006803 74.4834123,50.7006803 Z M75.3222749,82 L19.6777251,82 C18.7549763,82 18,81.2102041 18,80.244898 L18,72.0544218 C18,71.0891156 18.7549763,70.2993197 19.6777251,70.2993197 L75.3222749,70.2993197 C76.2450237,70.2993197 77,71.0891156 77,72.0544218 L77,80.244898 C77,81.2102041 76.2450237,82 75.3222749,82 Z" id="形状" fill="#96CCEC"></path>
            <path d="M26.0000154,3 C25.9859785,13.4705672 35.5977363,21.985256 47.4719108,21.9999809 C59.3460853,22.0146677 68.9859477,13.5440965 69,3.05882341 L59.2898762,3.04411756 C59.2758239,9.3235167 53.9921676,14.4264476 47.4859631,14.4264476 C40.9657063,14.4264476 35.68205,9.3235167 35.68205,3.02941171" id="形状" fill="#96CCEC"></path>
            <path d="M24.625,43.1505057 C22.218578,43.1505057 20.931422,42.3488995 19.8821101,41.7076145 C19.0286697,41.1829268 18.3990826,40.7894111 17,40.7894111 L17,37 C19.406422,37 20.693578,37.8016062 21.7428899,38.4428911 C22.5963303,38.9675788 23.2259174,39.3610946 24.625,39.3610946 C26.0380734,39.3610946 26.6536697,38.9821535 27.5071101,38.4428911 C28.5424312,37.8016062 29.843578,37 32.25,37 C34.656422,37 35.943578,37.8016062 36.9928899,38.4428911 C37.8463303,38.9675788 38.4759174,39.3610946 39.875,39.3610946 C41.2880734,39.3610946 41.9036697,38.9821535 42.7571101,38.4428911 C43.7924312,37.8016062 45.093578,37 47.5,37 C49.906422,37 51.193578,37.8016062 52.2428899,38.4428911 C53.0963303,38.9675788 53.7259174,39.3610946 55.125,39.3610946 C56.5380734,39.3610946 57.1536697,38.9821535 58.0071101,38.4428911 C59.0424312,37.8016062 60.343578,37 62.75,37 C65.156422,37 66.443578,37.8016062 67.4928899,38.4428911 C68.3463303,38.9675788 68.9759174,39.3610946 70.375,39.3610946 C71.7880734,39.3610946 72.4036697,38.9821535 73.2571101,38.4428911 C74.2924312,37.8016062 75.593578,37 78,37 L78,40.7894111 C76.5869266,40.7894111 75.9713303,41.1683522 75.1178899,41.7076145 C74.0825688,42.3488995 72.781422,43.1505057 70.375,43.1505057 C67.968578,43.1505057 66.681422,42.3488995 65.6321101,41.7076145 C64.7786697,41.1829268 64.1490826,40.7894111 62.75,40.7894111 C61.3369266,40.7894111 60.7213303,41.1683522 59.8678899,41.7076145 C58.8325688,42.3488995 57.531422,43.1505057 55.125,43.1505057 C52.718578,43.1505057 51.431422,42.3488995 50.3821101,41.7076145 C49.5286697,41.1829268 48.8990826,40.7894111 47.5,40.7894111 C46.0869266,40.7894111 45.4713303,41.1683522 44.6178899,41.7076145 C43.5825688,42.3488995 42.281422,43.1505057 39.875,43.1505057 C37.468578,43.1505057 36.181422,42.3488995 35.1321101,41.7076145 C34.2786697,41.1829268 33.6490826,40.7894111 32.25,40.7894111 C30.8369266,40.7894111 30.2213303,41.1683522 29.3678899,41.7076145 C28.3325688,42.3488995 27.031422,43.1505057 24.625,43.1505057 Z M24.625,54.810232 C22.218578,54.810232 20.931422,54.0086258 19.8821101,53.3673409 C19.0286697,52.8426532 18.3990826,52.4491374 17,52.4491374 L17,48.6597264 C19.406422,48.6597264 20.693578,49.4613325 21.7428899,50.1026175 C22.5963303,50.6273052 23.2259174,51.0208209 24.625,51.0208209 C26.0380734,51.0208209 26.6536697,50.6418798 27.5071101,50.1026175 C28.5424312,49.4613325 29.843578,48.6597264 32.25,48.6597264 C34.656422,48.6597264 35.943578,49.4613325 36.9928899,50.1026175 C37.8463303,50.6273052 38.4759174,51.0208209 39.875,51.0208209 C41.2880734,51.0208209 41.9036697,50.6418798 42.7571101,50.1026175 C43.7924312,49.4613325 45.093578,48.6597264 47.5,48.6597264 C49.906422,48.6597264 51.193578,49.4613325 52.2428899,50.1026175 C53.0963303,50.6273052 53.7259174,51.0208209 55.125,51.0208209 C56.5380734,51.0208209 57.1536697,50.6418798 58.0071101,50.1026175 C59.0424312,49.4613325 60.343578,48.6597264 62.75,48.6597264 C65.156422,48.6597264 66.443578,49.4613325 67.4928899,50.1026175 C68.3463303,50.6273052 68.9759174,51.0208209 70.375,51.0208209 C71.7880734,51.0208209 72.4036697,50.6418798 73.2571101,50.1026175 C74.2924312,49.4613325 75.593578,48.6597264 78,48.6597264 L78,52.4491374 C76.5869266,52.4491374 75.9713303,52.8280785 75.1178899,53.3673409 C74.0825688,54.0086258 72.781422,54.810232 70.375,54.810232 C67.968578,54.810232 66.681422,54.0086258 65.6321101,53.3673409 C64.7786697,52.8426532 64.1490826,52.4491374 62.75,52.4491374 C61.3369266,52.4491374 60.7213303,52.8280785 59.8678899,53.3673409 C58.8325688,54.0086258 57.531422,54.810232 55.125,54.810232 C52.718578,54.810232 51.431422,54.0086258 50.3821101,53.3673409 C49.5286697,52.8426532 48.8990826,52.4491374 47.5,52.4491374 C46.0869266,52.4491374 45.4713303,52.8280785 44.6178899,53.3673409 C43.5825688,54.0086258 42.281422,54.810232 39.875,54.810232 C37.468578,54.810232 36.181422,54.0086258 35.1321101,53.3673409 C34.2786697,52.8426532 33.6490826,52.4491374 32.25,52.4491374 C30.8369266,52.4491374 30.2213303,52.8280785 29.3678899,53.3673409 C28.3325688,54.0086258 27.031422,54.810232 24.625,54.810232 Z M24.625,74.3402736 C22.218578,74.3402736 20.931422,73.5386675 19.8821101,72.8973825 C19.0286697,72.3726948 18.3990826,71.9791791 17,71.9791791 L17,68.189768 C19.406422,68.189768 20.693578,68.9913742 21.7428899,69.6326591 C22.5963303,70.1573468 23.2259174,70.5508626 24.625,70.5508626 C26.0380734,70.5508626 26.6536697,70.1719215 27.5071101,69.6326591 C28.5424312,68.9913742 29.843578,68.189768 32.25,68.189768 C34.656422,68.189768 35.943578,68.9913742 36.9928899,69.6326591 C37.8463303,70.1573468 38.4759174,70.5508626 39.875,70.5508626 C41.2880734,70.5508626 41.9036697,70.1719215 42.7571101,69.6326591 C43.7924312,68.9913742 45.093578,68.189768 47.5,68.189768 C49.906422,68.189768 51.193578,68.9913742 52.2428899,69.6326591 C53.0963303,70.1573468 53.7259174,70.5508626 55.125,70.5508626 C56.5380734,70.5508626 57.1536697,70.1719215 58.0071101,69.6326591 C59.0424312,68.9913742 60.343578,68.189768 62.75,68.189768 C65.156422,68.189768 66.443578,68.9913742 67.4928899,69.6326591 C68.3463303,70.1573468 68.9759174,70.5508626 70.375,70.5508626 C71.7880734,70.5508626 72.4036697,70.1719215 73.2571101,69.6326591 C74.2924312,68.9913742 75.593578,68.189768 78,68.189768 L78,71.9791791 C76.5869266,71.9791791 75.9713303,72.3581202 75.1178899,72.8973825 C74.0825688,73.5386675 72.781422,74.3402736 70.375,74.3402736 C67.968578,74.3402736 66.681422,73.5386675 65.6321101,72.8973825 C64.7786697,72.3726948 64.1490826,71.9791791 62.75,71.9791791 C61.3369266,71.9791791 60.7213303,72.3581202 59.8678899,72.8973825 C58.8325688,73.5386675 57.531422,74.3402736 55.125,74.3402736 C52.718578,74.3402736 51.431422,73.5386675 50.3821101,72.8973825 C49.5286697,72.3726948 48.8990826,71.9791791 47.5,71.9791791 C46.0869266,71.9791791 45.4713303,72.3581202 44.6178899,72.8973825 C43.5825688,73.5386675 42.281422,74.3402736 39.875,74.3402736 C37.468578,74.3402736 36.181422,73.5386675 35.1321101,72.8973825 C34.2786697,72.3726948 33.6490826,71.9791791 32.25,71.9791791 C30.8369266,71.9791791 30.2213303,72.3581202 29.3678899,72.8973825 C28.3325688,73.5386675 27.031422,74.3402736 24.625,74.3402736 Z M24.625,86 C22.218578,86 20.931422,85.1983938 19.8821101,84.5571089 C19.0286697,84.0324212 18.3990826,83.6389054 17,83.6389054 L17,79.8494943 C19.406422,79.8494943 20.693578,80.6511005 21.7428899,81.2923855 C22.5963303,81.8170732 23.2259174,82.2105889 24.625,82.2105889 C26.0380734,82.2105889 26.6536697,81.8316478 27.5071101,81.2923855 C28.5424312,80.6511005 29.843578,79.8494943 32.25,79.8494943 C34.656422,79.8494943 35.943578,80.6511005 36.9928899,81.2923855 C37.8463303,81.8170732 38.4759174,82.2105889 39.875,82.2105889 C41.2880734,82.2105889 41.9036697,81.8316478 42.7571101,81.2923855 C43.7924312,80.6511005 45.093578,79.8494943 47.5,79.8494943 C49.906422,79.8494943 51.193578,80.6511005 52.2428899,81.2923855 C53.0963303,81.8170732 53.7259174,82.2105889 55.125,82.2105889 C56.5380734,82.2105889 57.1536697,81.8316478 58.0071101,81.2923855 C59.0424312,80.6511005 60.343578,79.8494943 62.75,79.8494943 C65.156422,79.8494943 66.443578,80.6511005 67.4928899,81.2923855 C68.3463303,81.8170732 68.9759174,82.2105889 70.375,82.2105889 C71.7880734,82.2105889 72.4036697,81.8316478 73.2571101,81.2923855 C74.2924312,80.6511005 75.593578,79.8494943 78,79.8494943 L78,83.6389054 C76.5869266,83.6389054 75.9713303,84.0178465 75.1178899,84.5571089 C74.0825688,85.1983938 72.781422,86 70.375,86 C67.968578,86 66.681422,85.1983938 65.6321101,84.5571089 C64.7786697,84.0324212 64.1490826,83.6389054 62.75,83.6389054 C61.3369266,83.6389054 60.7213303,84.0178465 59.8678899,84.5571089 C58.8325688,85.1983938 57.531422,86 55.125,86 C52.718578,86 51.431422,85.1983938 50.3821101,84.5571089 C49.5286697,84.0324212 48.8990826,83.6389054 47.5,83.6389054 C46.0869266,83.6389054 45.4713303,84.0178465 44.6178899,84.5571089 C43.5825688,85.1983938 42.281422,86 39.875,86 C37.468578,86 36.181422,85.1983938 35.1321101,84.5571089 C34.2786697,84.0324212 33.6490826,83.6389054 32.25,83.6389054 C30.8369266,83.6389054 30.2213303,84.0178465 29.3678899,84.5571089 C28.3325688,85.1983938 27.031422,86 24.625,86 Z" id="形状" fill="#000000"></path>
            <path d="M74.7032652,114 L21.2823969,114 C19.1896789,114 18.1715999,111.613619 17.2666408,108.034048 C16.8000213,106.208323 16.4465216,104.281967 16.2344218,103.002522 L4.93657275,101.378058 L4.66791301,101.2343 C2.87213475,100.299874 1.75507583,98.4453972 1.75507583,96.3752837 L1.75507583,91.1424968 C0.623876931,90.0930643 -0.0265624395,88.5836066 0.000831985718,86.9735183 L1.47227611,22.8143758 C1.67023592,14.1313997 7.21311055,6.58411097 15.2446228,4.02522068 L25.312293,0.819419924 C27.0090914,0.273139975 28.7624497,0 30.544088,0 L65.4415742,0 C67.2232124,0 68.9765707,0.273139975 70.6733691,0.819419924 L80.7410393,4.02522068 C88.7866915,6.58411097 94.3154262,14.1313997 94.513386,22.8143758 L95.9980846,86.9878941 C96.0405045,88.5979823 95.3759252,90.1074401 94.2447263,91.1568726 L94.2447263,96.3896595 C94.2447263,98.459773 93.1276673,100.31425 91.3318891,101.248676 L91.0632293,101.392434 L79.7512403,103.016898 C79.5391405,104.296343 79.1856408,106.222699 78.7190213,108.048424 C77.8282022,111.627995 76.7959832,114 74.7032652,114 Z M21.8621364,110.262295 L74.1093858,110.262295 C74.6891252,109.169735 75.6082243,105.805801 76.2869437,101.378058 C76.4424835,100.371753 77.2201827,99.5954603 78.2099818,99.4517024 L89.8754705,97.7697352 C90.2996701,97.4534678 90.5683298,96.9359395 90.5683298,96.3752837 L90.5683298,89.1298865 L91.4874289,88.5979823 C92.0106084,88.2960908 92.3358281,87.7066835 92.3221313,87.0741488 L90.8511295,22.9150063 C90.6814497,15.8277427 86.1849341,9.67490542 79.6522604,7.60479193 L69.5704502,4.39899117 C68.2271515,3.96771753 66.8414328,3.75208071 65.4415742,3.75208071 L30.544088,3.75208071 C29.1442293,3.75208071 27.7443707,3.96771753 26.415212,4.39899117 L16.3475417,7.60479193 C9.81486803,9.68928121 5.3042124,15.8421185 5.14867255,22.9150063 L3.66351188,87.0741488 C3.649834,87.7066835 3.9609137,88.2960908 4.49823318,88.5979823 L5.41733229,89.1298865 L5.41733229,96.3752837 C5.41733229,96.9359395 5.67185204,97.4534678 6.11019162,97.7697352 L17.7756803,99.4517024 C18.7654794,99.5954603 19.5431786,100.371753 19.6987185,101.378058 C20.3774378,105.820177 21.2823969,109.169735 21.8621364,110.262295 Z" id="形状" fill="#000000"></path>
            <path d="M46.5,16 C39.0541237,16 33,9.72164948 33,2 L36.6185567,2 C36.6185567,7.64329897 41.0582474,12.2474227 46.5,12.2474227 C51.9417526,12.2474227 56.3814433,7.64329897 56.3814433,2 L60,2 C60,9.72164948 53.9458763,16 46.5,16 Z" id="路径" fill="#000000"></path>
            <path d="M47.1490316,24.3730273 C40.9859988,24.3730273 35.173936,22.2926829 30.779792,18.5193687 C26.3154539,14.6599713 23.8446253,9.50932568 23.8446253,4 L27.494713,4 C27.494713,13.1822095 36.3110788,20.6427547 47.1490316,20.6427547 C57.9869844,20.6427547 66.8033501,13.1822095 66.8033501,4 L70.4534378,4 C70.4534378,9.50932568 67.9826092,14.6599713 63.5182712,18.5193687 C59.1241271,22.2926829 53.3120643,24.3730273 47.1490316,24.3730273 Z M78.1747773,104 C77.1780226,104 76.3637722,103.182209 76.3497334,102.163558 L75.5074055,32.579627 C75.4933667,31.5466284 76.307617,30.7001435 77.3043717,30.6856135 C78.3151653,30.6714491 79.1434544,31.5035868 79.1574932,32.5222382 L79.9998211,102.106169 C80.0138599,103.139168 79.1996096,103.985653 78.2028549,104 L78.1747773,104 L78.1747773,104 Z M16.8252258,104 L16.7971482,104 C15.7863547,103.985653 14.9861431,103.139168 15.0001819,102.106169 L15.8425099,32.5222382 C15.8565487,31.5035868 16.670799,30.6857963 17.6675537,30.6857963 L17.6956313,30.6857963 C18.7064249,30.7001435 19.5066364,31.5466284 19.4925976,32.579627 L18.6502697,102.163558 C18.6362309,103.182209 17.8219805,104 16.8252258,104 L16.8252258,104 Z" id="形状" fill="#000000"></path>
            <path d="M78.5383622,103 L17.8839027,103 C16.8635473,103 16.0415944,102.156017 16.0415944,101.108313 C16.0415944,100.06061 16.8635473,99.2166268 17.8839027,99.2166268 L78.5383622,99.2166268 C79.5587176,99.2166268 80.3806705,100.06061 80.3806705,101.108313 C80.3806705,102.156017 79.5587176,103 78.5383622,103 Z M15.6164463,93.2505383 C15.5455883,93.2505383 15.4747303,93.2505383 15.3897007,93.2359868 L3.62727044,91.7808433 C2.62108665,91.6498804 1.89833491,90.7185885 2.01170773,89.6708852 C2.13925216,88.6377332 3.04623473,87.89561 4.06659012,88.0120215 L15.8290203,89.4671651 C16.8352041,89.598128 17.5579559,90.5294199 17.444583,91.5771232 C17.3312102,92.5520694 16.5376005,93.2505383 15.6164463,93.2505383 Z M80.3806705,93.2505383 C79.4595164,93.2505383 78.6659066,92.5520694 78.5525338,91.5916746 C78.4249894,90.5585227 79.1477411,89.6126794 80.1680965,89.4817165 L91.9305267,88.026573 C92.9367105,87.89561 93.8578647,88.6377332 93.9854091,89.6854366 C94.1129535,90.7185885 93.3902018,91.6644318 92.3698464,91.7953947 L80.6074162,93.2505383 L80.3806705,93.2505383 Z" id="形状" fill="#000000"></path>
        </g>
    </g>
</svg>