<svg t="1642387323437" class="icon" viewBox="0 0 1024 1024" version="1.1" xmlns="http://www.w3.org/2000/svg" p-id="4779" width="48" height="48"><path d="M513.024 65.536q93.184 0 175.616 35.84t143.872 97.28 97.28 143.872 35.84 175.616q0 94.208-35.84 176.64t-97.28 143.872-143.872 97.28-175.616 35.84q-94.208 0-176.64-35.84t-143.872-97.28-97.28-143.872-35.84-176.64q0-93.184 35.84-175.616t97.28-143.872 143.872-97.28 176.64-35.84zM513.024 909.312q80.896 0 152.064-30.72t124.416-83.968 83.968-124.416 30.72-152.064-30.72-152.064-83.968-124.416-124.416-83.968-152.064-30.72q-81.92 0-153.088 30.72t-124.416 83.968-83.968 124.416-30.72 152.064 30.72 152.064 83.968 124.416 124.416 83.968 153.088 30.72zM513.024 190.464q66.56 0 124.928 25.088t102.4 69.12 69.12 102.4 25.088 124.928-25.088 125.44-69.12 102.912-102.4 69.12-124.928 25.088-125.44-25.088-102.912-69.12-69.12-102.912-25.088-125.44 25.088-124.928 69.12-102.4 102.912-69.12 125.44-25.088z" p-id="4780" fill="#51b875"></path></svg>