<?xml version="1.0" encoding="UTF-8"?>
<svg width="38px" height="48px" viewBox="0 0 38 48" version="1.1" xmlns="http://www.w3.org/2000/svg" xmlns:xlink="http://www.w3.org/1999/xlink">
    <!-- Generator: Sketch 64 (93537) - https://sketch.com -->
    <title>形状</title>
    <desc>Created with Sketch.</desc>
    <g id="页面-1" stroke="none" stroke-width="1" fill="none" fill-rule="evenodd">
        <g id="定位" fill-rule="nonzero">
            <path d="M18.8923393,44.2433036 C15.5854821,44.2433036 1.74948216,31.2781607 1.74948216,18.5290178 C1.74997722,9.06162935 9.42495079,1.38705711 18.8923393,1.38705711 C28.3597278,1.38705711 36.0347014,9.06162935 36.0351964,18.5290178 C36.0351964,31.2781607 22.1991964,44.2433036 18.8923393,44.2433036 Z" id="路径" fill="#BCBCBC"></path>
            <path d="M18.8923393,47.671875 C15.254625,47.671875 0.0351964219,33.1501607 0.0351964219,18.871875 C0.0351964219,8.45736257 8.47782686,0.0147321328 18.8923393,0.0147321328 C29.3068517,0.0147321328 37.7494822,8.45736257 37.7494822,18.871875 C37.7494822,33.1501607 22.5300536,47.671875 18.8923393,47.671875 Z M18.8923393,3.10044642 C10.3713746,3.10044642 3.46376784,10.0080531 3.46376784,18.5290178 C3.46376784,29.299875 14.870625,42.5290178 18.8923393,42.5290178 C22.6997678,42.5290178 34.3209107,29.4061607 34.3209107,18.5290178 C34.3209107,14.4371063 32.6954052,10.5127888 29.8019868,7.61937035 C26.9085684,4.72595194 22.9842508,3.10044642 18.8923393,3.10044642 Z M18.8923393,23.671875 C16.0520177,23.671875 13.7494821,21.3693394 13.7494821,18.5290178 C13.7494821,15.6886963 16.0520177,13.3861607 18.8923393,13.3861607 C21.7326608,13.3861607 24.0351964,15.6886963 24.0351964,18.5290178 C24.0351964,21.3693394 21.7326608,23.671875 18.8923393,23.671875 L18.8923393,23.671875 Z" id="形状" fill="#FFFFFF"></path>
        </g>
    </g>
</svg>