<?xml version="1.0" encoding="UTF-8"?>
<svg width="54px" height="52px" viewBox="0 0 54 52" version="1.1" xmlns="http://www.w3.org/2000/svg" xmlns:xlink="http://www.w3.org/1999/xlink">
    <!-- Generator: Sketch 64 (93537) - https://sketch.com -->
    <title>线性羽毛笔</title>
    <desc>Created with Sketch.</desc>
    <g id="页面-1" stroke="none" stroke-width="1" fill="none" fill-rule="evenodd">
        <g id="线性羽毛笔" fill-rule="nonzero">
            <path d="M39.30625,30.075 L34.09375,35.2875 C31.25,38.1375 27.73125,40.35625 23.9375,41.7125 C21,42.75625 17.86875,43.29375 14.74375,43.29375 C14.075,43.29375 13.40625,43.26875 12.74375,43.21875 C12.5,43.2 12.25,43.18125 12.00625,43.15625 L10.7625,43.03125 L10.6375,41.78125 C10.6125,41.53125 10.59375,41.2875 10.575,41.0375 C10.3,37.2625 10.8125,33.40625 12.08125,29.84375 C13.43125,26.04375 15.65625,22.53125 18.50625,19.68125 L22.35,15.8375 L28.25625,9.93125 L29.0625,9.125 C29.33125,8.85625 29.6,8.6 29.875,8.34375 C30.19375,12.0625 31.675,14.66875 31.70625,14.73125 C31.6875,14.64375 30.725,10.475 31.35,7.06875 C36.63125,2.8 43.33125,0.43125 50.15625,0.675 L53.1125,0.675 L53.1125,3.625 C53.3875,11.4625 50.23125,19.1375 44.7,24.6875 L44.6625,24.725 L39.30625,30.075 L39.30625,30.075 Z" id="路径" fill="#8ADCFF"></path>
            <path d="M7.1375,46.64375 C4.45,39.61875 8.03125,33.41875 8.03125,33.41875 C8.03125,33.41875 6.1125,41.58125 9.3125,44.46875 L7.1375,46.64375 Z M22.625,29.78125 C22.21875,25.76875 22.7125,21.64375 24.06875,17.84375 C25.075,15.025 26.44375,12.30625 28.25,9.925 L22.34375,15.8375 C20.5375,18.21875 19.16875,20.9375 18.1625,23.75625 C16.8125,27.55625 16.3125,31.68125 16.71875,35.69375 L16.84375,36.94375 L21.575,34.39375 L22.75,31.0375 L22.625,29.78125 L22.625,29.78125 Z" id="形状" fill="#46CDFB"></path>
            <path d="M26.7375,31.29375 C25.825,31.29375 24.90625,31.25 24,31.15625 L22.75,31.03125 L16.84375,36.9375 L18.09375,37.0625 C19,37.15625 19.91875,37.2 20.83125,37.2 C23.95625,37.2 27.0875,36.6625 30.025,35.61875 C33.41875,34.4125 36.525,32.3875 39.30625,30.075 L44.65625,24.725 L44.69375,24.6875 C42.11875,26.8625 39.08125,28.5875 35.9375,29.7125 C32.99375,30.75625 29.8625,31.29375 26.7375,31.29375 L26.7375,31.29375 Z" id="路径" fill="#46CDFB"></path>
            <path d="M39.30625,30.075 L34.09375,35.2875 C31.25,38.1375 27.73125,40.35625 23.9375,41.7125 C21,42.75625 17.86875,43.29375 14.74375,43.29375 C14.075,43.29375 13.40625,43.26875 12.74375,43.21875 C12.5,43.2 12.25,43.18125 12.00625,43.15625 L11.29375,43.08125 C13.55625,42.775 15.78125,42.2375 17.925,41.475 C22.51875,39.8375 26.76875,37.15 30.21875,33.70625 L36.525,27.4 L42.99375,20.925 L43.0375,20.88125 C48.48125,15.41875 52.025,8.25625 52.98125,0.66875 L53.1125,0.66875 L53.1125,3.625 C53.3875,11.4625 50.23125,19.1375 44.7,24.6875 L44.6625,24.725 L39.30625,30.075 Z" id="路径" fill="#46CDFB"></path>
            <path d="M39.30625,30.075 C36.525,32.3875 33.41875,34.4125 30.025,35.61875 C29.04375,35.96875 28.04375,36.25625 27.03125,36.49375 C28.15,35.63125 29.21875,34.69375 30.2125,33.7 L33.45,30.4625 C34.2875,30.25 35.11875,30 35.93125,29.7125 C39.075,28.59375 42.11875,26.86875 44.6875,24.6875 L44.65,24.725 L39.30625,30.075 L39.30625,30.075 Z" id="路径" fill="#15B7FF"></path>
            <path d="M42.05625,12.13125 L42.60625,11.16875 L41.66875,11.7 C38.93125,13.25625 36.4125,15.18125 34.18125,17.40625 L0.625,50.975 L6.78125,49.175 L36.375,19.58125 C38.59375,17.3625 40.5,14.85625 42.05625,12.13125 Z" id="路径" fill="#FDF17F"></path>
            <path d="M53.7375,3.6125 L53.7375,0.675 C53.7375,0.33125 53.45625,0.05 53.1125,0.05 L50.16875,0.05 C46.725,-0.06875 43.3,0.44375 39.975,1.5875 C36.7,2.7125 33.66875,4.39375 30.9625,6.58125 C30.84375,6.675 30.76875,6.80625 30.74375,6.95625 C30.6375,7.525 30.575,8.1125 30.54375,8.69375 C30.53125,8.5625 30.51875,8.425 30.50625,8.2875 C30.4875,8.05 30.33125,7.84375 30.10625,7.75625 C29.88125,7.66875 29.63125,7.71875 29.45625,7.88125 C29.1375,8.175 28.875,8.43125 28.625,8.675 L27.8875,9.4125 C27.8625,9.43125 27.83125,9.45625 27.80625,9.48125 L21.9,15.39375 C21.88125,15.4125 21.86875,15.425 21.85625,15.44375 L18.0625,19.2375 C15.14375,22.15625 12.86875,25.75625 11.49375,29.63125 C10.2375,33.15625 9.7,37.00625 9.93125,40.775 L8.58125,42.125 C7.4375,38.7875 8.625,33.61875 8.6375,33.5625 C8.6375,33.55 8.64375,33.5375 8.64375,33.53125 C8.64375,33.51875 8.65,33.5125 8.65,33.5 C8.65,33.4875 8.65,33.46875 8.65625,33.45625 L8.65625,33.4375 L8.65625,33.425 L8.65625,33.3875 L8.65625,33.38125 C8.63125,33.05625 8.3625,32.8 8.03125,32.8 C7.86875,32.8 7.725,32.8625 7.6125,32.9625 L7.6,32.975 C7.5875,32.9875 7.575,33 7.56875,33.0125 C7.55625,33.025 7.54375,33.04375 7.53125,33.0625 C7.525,33.06875 7.51875,33.08125 7.5125,33.09375 C7.50625,33.10625 7.5,33.11875 7.4875,33.13125 C7.4875,33.1375 7.48125,33.14375 7.48125,33.14375 C7.36875,33.35 6.6375,34.6875 6.1,36.75625 C5.39375,39.4625 5.3375,42.2375 5.93125,44.8 L0.19375,50.5375 C-0.00625,50.7375 -0.05,51.05 0.1,51.3 C0.2125,51.49375 0.41875,51.60625 0.6375,51.60625 C0.69375,51.60625 0.75625,51.6 0.8125,51.58125 L6.96875,49.78125 C7.06875,49.75 7.1625,49.7 7.2375,49.625 L12.99375,43.86875 C13.575,43.90625 14.16875,43.925 14.75625,43.925 C17.975,43.925 21.1375,43.38125 24.1625,42.30625 C28.05625,40.9125 31.65,38.64375 34.55,35.7375 L39.7625,30.525 L45.11875,25.175 L45.15625,25.1375 C50.88125,19.375 54.0125,11.53125 53.7375,3.6125 Z M17.2125,33.5 C17.15,30.26875 17.675,27 18.75,23.96875 C19.79375,21.0375 21.15625,18.45 22.8,16.275 L24.9625,14.1125 C24.4125,15.225 23.91875,16.40625 23.48125,17.6375 C22.21875,21.16875 21.68125,25.025 21.91875,28.79375 L17.2125,33.5 Z M12.66875,30.05 C13.9875,26.34375 16.15625,22.9125 18.94375,20.11875 L19.0625,20 C18.5125,21.11875 18.0125,22.3 17.56875,23.54375 C16.3125,27.0875 15.76875,30.9375 16.00625,34.69375 L11.125,39.575 C11.06875,36.3375 11.59375,33.075 12.66875,30.05 L12.66875,30.05 Z M6.8625,39.46875 C6.93125,40.73125 7.15,42.00625 7.61875,43.09375 L6.98125,43.73125 C6.71875,42.20625 6.71875,40.7625 6.8625,39.46875 Z M6.45,48.61875 L2.79375,49.6875 L8.80625,43.675 L8.81875,43.6625 L34.625,17.85 C36.525,15.95625 38.61875,14.3 40.875,12.9 C39.46875,15.16875 37.8125,17.2625 35.9375,19.1375 L6.45,48.61875 Z M38.9125,29.58125 L38.88125,29.6125 C35.775,32.19375 32.80625,33.9625 29.8125,35.03125 C26.925,36.05625 23.90625,36.575 20.825,36.575 C20.6375,36.575 20.45,36.575 20.2625,36.56875 L21.93125,34.9 C21.9875,34.8625 22.0375,34.8125 22.075,34.75625 L24.96875,31.8625 C25.54375,31.9 26.13125,31.91875 26.73125,31.91875 C29.95,31.91875 33.1125,31.375 36.14375,30.3 C37.3875,29.85625 38.60625,29.31875 39.78125,28.7125 L38.9125,29.58125 L38.9125,29.58125 Z M23.73125,41.125 C20.84375,42.15 17.825,42.66875 14.74375,42.66875 C14.55625,42.66875 14.36875,42.66875 14.18125,42.6625 L19.075,37.76875 C19.65,37.80625 20.2375,37.825 20.8375,37.825 C24.05625,37.825 27.21875,37.28125 30.24375,36.20625 C31.49375,35.7625 32.7375,35.2 33.9875,34.51875 L33.65625,34.85 C30.88125,37.625 27.45,39.79375 23.73125,41.125 Z M44.3,24.2 C44.29375,24.2 44.29375,24.20625 44.2875,24.20625 C41.8,26.30625 38.84375,28.00625 35.725,29.11875 C32.83125,30.14375 29.80625,30.6625 26.73125,30.6625 C26.54375,30.6625 26.35625,30.6625 26.16875,30.65625 L36.80625,20.01875 C39.05,17.775 41,15.21875 42.5875,12.4375 L43.1375,11.475 C43.275,11.23125 43.2375,10.925 43.0375,10.725 C42.8375,10.525 42.53125,10.48125 42.2875,10.625 L41.35,11.15625 C38.575,12.73125 36.0125,14.6875 33.73125,16.9625 L23.1125,27.5875 C23.04375,24.34375 23.575,21.075 24.65,18.05 C25.69375,15.13125 27.05,12.55 28.68125,10.38125 L29.4,9.6625 C29.8625,12.5375 30.90625,14.5875 31.1375,15.0125 L31.14375,15.01875 C31.2875,15.29375 31.6125,15.425 31.90625,15.31875 C32.20625,15.2125 32.375,14.90625 32.3125,14.6 L32.30625,14.58125 C32.2125,14.1625 31.425,10.475 31.91875,7.40625 C34.46875,5.38125 37.3125,3.81875 40.36875,2.76875 C43.55,1.675 46.8375,1.18125 50.125,1.3 L52.48125,1.3 L52.48125,3.65 C52.75,11.20625 49.76875,18.69375 44.3,24.2 L44.3,24.2 Z" id="形状" fill="#00435B"></path>
        </g>
    </g>
</svg>