<?xml version="1.0" encoding="UTF-8"?>
<svg width="54px" height="51px" viewBox="0 0 54 51" version="1.1" xmlns="http://www.w3.org/2000/svg" xmlns:xlink="http://www.w3.org/1999/xlink">
    <!-- Generator: Sketch 64 (93537) - https://sketch.com -->
    <title>Wallet</title>
    <desc>Created with Sketch.</desc>
    <g id="页面-1" stroke="none" stroke-width="1" fill="none" fill-rule="evenodd">
        <g id="电商图标" transform="translate(-292.000000, -111.000000)" fill-rule="nonzero">
            <g id="Wallet" transform="translate(292.000000, 111.000000)">
                <path d="M37.9248333,0.0416666875 C46.4315,0.0416666875 53.3541667,7.12166669 53.3541667,15.8256667 L53.3541667,34.9243333 C53.3541667,43.6283333 46.4315,50.7083333 37.9248333,50.7083333 C36.9327902,50.6951592 36.1384571,49.881743 36.1488333,48.8896667 C36.1488333,47.8843334 36.9435,47.071 37.9248333,47.071 C44.4715,47.071 49.7995,41.623 49.7995,34.9243333 L49.7995,19.6816667 L41.0421667,19.6816667 C38.1675,19.6816667 35.8235,22.0816667 35.8208333,25.0256667 C35.8208333,27.9696667 38.1675,30.3643334 41.0421667,30.367 L44.6821667,30.367 C45.6635,30.367 46.4581667,31.183 46.4581667,32.1856667 C46.4685429,33.177743 45.6742098,33.9911592 44.6821667,34.0043333 L41.0421667,34.0043333 C36.2048334,34.0043333 32.2688334,29.975 32.2661667,25.0256667 C32.2661667,20.0736667 36.2048334,16.047 41.0421667,16.0443333 L49.7995,16.0443333 L49.7995,15.8256667 C49.7995,9.127 44.4715,3.679 37.9248333,3.679 L15.4448333,3.679 C10.1701666,3.679 5.7435,7.239 4.1995,12.1163333 L27.6341667,12.1163333 C28.6155,12.1163333 29.4101667,12.9323333 29.4101667,13.935 C29.4165718,14.4121512 29.2329641,14.8722634 28.8998156,15.2139158 C28.566667,15.5555681 28.1113278,15.7507123 27.6341667,15.7563333 L3.5835,15.7563333 L3.5755,15.8256667 L3.5755,34.9243333 C3.5755,41.623 8.90083331,47.071 15.4475,47.071 L26.7541667,47.071 C27.7381667,47.071 28.5328334,47.8843333 28.5328333,48.8896667 C28.5432095,49.881743 27.7488764,50.6951592 26.7568333,50.7083333 L15.4475,50.7083333 C6.94083331,50.7083333 0.0208333125,43.6283333 0.0208333125,34.9243333 L0.0208333125,15.8283333 C0.0208333125,7.12166669 6.94083331,0.0416666875 15.4475,0.0416666875 L37.9248333,0.0416666875 Z" id="形状" fill="#202020"></path>
                <path d="M42.2368333,23.0416667 C43.2181666,23.0416667 44.0128333,23.8576667 44.0128333,24.8603333 C44.0232096,25.8524097 43.2288765,26.6658259 42.2368333,26.679 L41.4288333,26.679 C40.435744,26.6672833 39.6397981,25.8534376 39.6501667,24.8603333 C39.6501667,23.8576666 40.4475,23.0416667 41.4288333,23.0416667 L42.2368333,23.0416667 Z" id="路径" fill="#17B319"></path>
            </g>
        </g>
    </g>
</svg>