<?xml version="1.0" encoding="UTF-8"?>
<svg width="48px" height="54px" viewBox="0 0 48 54" version="1.1" xmlns="http://www.w3.org/2000/svg" xmlns:xlink="http://www.w3.org/1999/xlink">
    <!-- Generator: Sketch 64 (93537) - https://sketch.com -->
    <title>Document</title>
    <desc>Created with Sketch.</desc>
    <g id="页面-1" stroke="none" stroke-width="1" fill="none" fill-rule="evenodd">
        <g id="电商图标" transform="translate(-72.000000, -108.000000)" fill-rule="nonzero">
            <g id="Document" transform="translate(72.000000, 108.000000)">
                <path d="M34.2746667,0.0208333125 C42.8453333,0.0208333125 47.976,5.2235 48,13.9141667 L48,39.4608333 C48,48.1541667 42.8906667,53.3541667 34.2986667,53.3541667 L26.6826667,53.3541667 C25.700008,53.2375986 24.9611546,52.4023729 24.9653333,51.4128333 C24.9597941,50.4222777 25.6989917,49.5855152 26.6826667,49.4688333 L34.2746667,49.4688333 C40.824,49.4688333 44.1226667,46.1008333 44.1226667,39.4608333 L44.1226667,13.9141667 C44.1226667,7.27416669 40.824,3.90616669 34.2746667,3.90616669 L13.7013333,3.90616669 C7.152,3.90616669 3.832,7.27416669 3.832,13.9141667 L3.832,39.4608333 C3.832,46.1008333 7.152,49.4688333 13.6986667,49.4688333 C14.6823416,49.5855153 15.4215392,50.4222777 15.416,51.4128333 C15.4203364,52.401469 14.6829335,53.2363514 13.7013333,53.3541667 C5.13333331,53.3541667 0,48.1515 0,39.4608333 L0,13.9141667 C0,5.20216669 5.13333331,0.0208333125 13.7013333,0.0208333125 L34.2746667,0.0208333125 Z" id="形状" fill="#202020"></path>
                <path d="M21.688,13.4661667 C22.6706586,13.5827348 23.409512,14.4179604 23.4053661,15.4075 C23.4110291,16.3971513 22.6732829,17.2335697 21.6906667,17.3515 L14.3733333,17.3515 C13.3907171,17.2335697 12.6529709,16.3971513 12.6586339,15.4075 C12.6543303,14.4188644 13.3917332,13.583982 14.3733333,13.4661667 L21.688,13.4661667 Z" id="路径" fill="#202020"></path>
                <path d="M33.5813333,36.0475 C34.6385944,36.0577628 35.4885905,36.9208724 35.4826975,37.9781667 C35.4826975,39.0448334 34.6293334,39.9088333 33.5786667,39.9088333 L14.352,39.9088333 C13.2936945,39.9000303 12.4420837,39.0364922 12.4479694,37.9781667 C12.4479694,36.9115 13.3013333,36.0475 14.352,36.0475 L33.5813333,36.0475 Z" id="路径" fill="#202020"></path>
                <path d="M33.5813333,24.7461667 C34.3176791,24.6674414 35.0336595,25.0192057 35.4213333,25.6501667 C35.8129536,26.2862797 35.8129536,27.0887203 35.4213333,27.7248333 C35.0343623,28.3568155 34.3182424,28.7096862 33.5813333,28.6315 L14.3493333,28.6315 C13.3667171,28.5135697 12.6289709,27.6771513 12.6346339,26.6875 C12.630488,25.6979604 13.3693414,24.8627348 14.352,24.7461667 L33.5813333,24.7461667 Z" id="路径" fill="#17B319"></path>
            </g>
        </g>
    </g>
</svg>