<?xml version="1.0" encoding="UTF-8"?>
<svg width="54px" height="54px" viewBox="0 0 54 54" version="1.1" xmlns="http://www.w3.org/2000/svg" xmlns:xlink="http://www.w3.org/1999/xlink">
    <!-- Generator: Sketch 64 (93537) - https://sketch.com -->
    <title>Chat</title>
    <desc>Created with Sketch.</desc>
    <g id="页面-1" stroke="none" stroke-width="1" fill="none" fill-rule="evenodd">
        <g id="电商图标" transform="translate(-13.000000, -188.000000)" fill-rule="nonzero">
            <g id="Chat" transform="translate(13.000000, 188.000000)">
                <path d="M26.7061667,0.0208333125 C31.0181667,0.0208333125 35.3195,1.0875 39.1355,3.09816669 C52.1355,9.95683337 57.1355,26.1141667 50.2821667,39.1195 C45.6538038,47.8679667 36.5715054,53.3442244 26.6741667,53.3541668 C24.7477178,53.3541668 22.8270065,53.1442096 20.9461667,52.7275 C19.9106648,52.4511419 19.2770587,51.4076554 19.5094772,50.3614148 C19.7418956,49.3151741 20.7577175,48.6381019 21.8128333,48.8261667 C31.7461666,51.0368334 41.9995,46.2688334 46.7488333,37.2581667 C52.5781666,26.2021667 48.3275,12.4608334 37.2741667,6.6315 C34.0146172,4.91590034 30.3869682,4.01813958 26.7035,4.0155 C14.1808333,4.0155 4.01283331,14.1835 4.01283331,26.6821667 C4.01105387,30.3340393 4.89207409,33.9322246 6.58083331,37.1701667 L7.09283331,38.1701667 C7.7195,39.3435 7.85816663,40.8048334 7.45016669,42.1248333 C6.90660732,43.5509639 6.43490387,45.0034545 6.03683331,46.4768333 C7.5355,46.0261666 9.36483331,45.3621666 10.6875,44.8795 L11.2288333,44.6848333 C12.2656559,44.3100161 13.4100161,44.8466774 13.7848333,45.8835 C14.1596506,46.9203225 13.6229893,48.0646827 12.5861667,48.4395 L12.0528333,48.6341667 C10.0741666,49.3515 7.37016663,50.3355 5.54083331,50.7435 C5.38599586,50.7786278 5.22759872,50.7956309 5.06883331,50.7941667 C3.84216663,50.7941667 3.0955,50.2981667 2.68483331,49.8795 C2.05283331,49.2395 1.7515,48.3381667 1.78616669,47.2075 C1.79104687,47.0745213 1.80890951,46.9423377 1.8395,46.8128333 C2.31416669,44.7941666 2.93283331,42.7781666 3.6795,40.8261667 C3.73114105,40.5434741 3.68406803,40.2516213 3.54616669,39.9995 L3.0315,39.0021667 C1.0523763,35.1971497 0.0196506758,30.9711157 0.0208322979,26.6821667 C0.0208322979,11.9808333 11.9781667,0.0208333125 26.6741667,0.0208333125 L26.7061667,0.0208333125 Z" id="形状" fill="#200E32"></path>
                <path d="M26.6768333,23.5141667 C28.3773914,23.5839266 29.7201002,24.982845 29.7201002,26.6848333 C29.7201002,28.3868217 28.3773914,29.7857401 26.6768333,29.8555 C24.9607896,29.8057391 23.59548,28.4002651 23.59548,26.6835 C23.59548,24.9667349 24.9607896,23.5612609 26.6768333,23.5115 L26.6768333,23.5141667 Z" id="路径" fill="#17B319"></path>
                <path d="M38.4181667,23.5141667 C40.1187248,23.5839266 41.4614336,24.982845 41.4614336,26.6848333 C41.4614336,28.3868217 40.1187248,29.7857401 38.4181667,29.8555 C36.702123,29.8057391 35.3368133,28.4002651 35.3368133,26.6835 C35.3368133,24.9667349 36.702123,23.5612609 38.4181667,23.5115 L38.4181667,23.5141667 Z" id="路径" fill="#17B319"></path>
                <path d="M14.9328333,23.5141664 C16.6854169,23.5149031 18.1055697,24.9362497 18.1048336,26.6888333 C18.1040969,28.4414169 16.6827503,29.8615697 14.9301667,29.8608336 C13.1775831,29.8600969 11.7574303,28.4387503 11.7581664,26.6861667 C11.7589031,24.9335831 13.1802497,23.5134303 14.9328333,23.5141664 Z" id="路径" fill="#17B319"></path>
            </g>
        </g>
    </g>
</svg>