<?xml version="1.0" encoding="UTF-8"?>
<svg width="54px" height="48px" viewBox="0 0 54 48" version="1.1" xmlns="http://www.w3.org/2000/svg" xmlns:xlink="http://www.w3.org/1999/xlink">
    <!-- Generator: Sketch 64 (93537) - https://sketch.com -->
    <title>Message</title>
    <desc>Created with Sketch.</desc>
    <g id="页面-1" stroke="none" stroke-width="1" fill="none" fill-rule="evenodd">
        <g id="电商图标" transform="translate(-432.000000, -223.000000)" fill-rule="nonzero">
            <g id="Message" transform="translate(432.000000, 223.000000)">
                <path d="M37.8795,0 C46.4155,0.0266666875 53.3275,6.98933331 53.3541667,15.5893333 L53.3541667,19.4826667 L53.3381667,19.744 C53.2127917,20.6826672 52.4131669,21.3843322 51.4661667,21.3866667 L51.4448333,21.3386667 L51.1461667,21.3146667 C50.2301772,21.1589496 49.5592637,20.3664612 49.5568333,19.4373333 L49.5568333,15.5893333 C49.4928333,9.12 44.3035,3.89066662 37.8795,3.82666669 L15.4955,3.82666669 C9.07416669,3.89066669 3.88216669,9.12 3.81816669,15.5866667 L3.81816669,32.4133333 C3.88216669,38.88 9.0715,44.1093333 15.4955,44.1733333 L37.8795,44.1733333 C44.3008333,44.1093333 49.4928333,38.88 49.5568333,32.4133333 C49.6602434,31.4418339 50.4785161,30.7040094 51.4555,30.7013333 C52.4288333,30.7013333 53.2475,31.4373333 53.3541667,32.4106667 C53.3275,41.0106667 46.4155,47.9733334 37.8795,48 L15.4955,48 C6.95416669,47.9866667 0.0341666875,41.0133333 0.0208333125,32.4106667 L0.0208333125,15.5893333 C0.0208333125,6.97866669 6.94883331,0 15.4955,0 L37.8795,0 Z" id="形状" fill="#202020"></path>
                <path d="M11.4715,14.3653333 C11.9692309,14.3117521 12.4674688,14.4618005 12.8528333,14.7813333 L23.9381667,23.6186667 C25.3248334,24.712 27.2715,24.712 28.6581667,23.6186667 L39.6261667,14.7813333 L39.6501667,14.7813333 L39.8795,14.6213333 C40.6898066,14.1489278 41.72355,14.3380134 42.3141667,15.0666667 C42.968725,15.8925932 42.8315662,17.0924344 42.0075,17.7493333 L31.0395,26.6133333 C28.256923,28.8744223 24.270077,28.8744223 21.4875,26.6133333 L10.4928333,17.7493333 L10.2901667,17.5573333 C9.66171564,16.8568929 9.62796083,15.8059933 10.2101667,15.0666667 C10.5189824,14.6725371 10.9737527,14.4196733 11.4715,14.3653333 L11.4715,14.3653333 Z" id="路径" fill="#17B319"></path>
            </g>
        </g>
    </g>
</svg>