<?xml version="1.0" encoding="UTF-8"?>
<svg width="51px" height="54px" viewBox="0 0 51 54" version="1.1" xmlns="http://www.w3.org/2000/svg" xmlns:xlink="http://www.w3.org/1999/xlink">
    <!-- Generator: Sketch 64 (93537) - https://sketch.com -->
    <title>Bag</title>
    <desc>Created with Sketch.</desc>
    <g id="页面-1" stroke="none" stroke-width="1" fill="none" fill-rule="evenodd">
        <g id="电商图标" transform="translate(-8.000000, -272.000000)" fill-rule="nonzero">
            <g id="Bag" transform="translate(8.000000, 272.000000)">
                <path d="M15.7563333,4.37816669 C19.2031251,0.533743315 24.584914,-0.930469533 29.5043208,0.637778411 C34.4237275,2.20602636 37.9651417,6.5148494 38.551,11.6448333 L38.9456667,11.6528333 C42.7936667,11.8075 47.191,14.2235 48.439,21.0208333 L50.4523333,36.6795 C51.2256666,42.1195 50.2176666,46.3141667 47.8736667,49.1035 C45.5323334,51.8928333 41.6896667,53.2528333 36.1616667,53.2528333 L14.8203333,53.2528333 C10.4520288,53.8000746 6.099966,52.1231238 3.22833331,48.7861667 C0.35511406,45.4491726 -0.657843083,40.8958701 0.529666687,36.6555 L0.588333312,36.3835 C0.887504138,35.3506223 1.93455229,34.7250296 2.98587083,34.951014 C4.03718937,35.1769983 4.73468466,36.1775863 4.583,37.2421667 C3.85068243,40.3109223 4.49233711,43.5464587 6.34033331,46.1035 C8.60923351,48.2545005 11.6742639,49.358685 14.7936667,49.1488333 L36.1616667,49.1488333 C40.4016667,49.1488333 43.3296667,48.2581666 44.855,46.4075 C46.375,44.5541667 46.9856667,41.4608333 46.375,37.2421667 L44.383,21.7488333 C43.6816667,17.9968333 41.503,15.6528333 38.551,15.6528333 L12.407,15.6528333 C9.59633331,15.6528333 7.41766669,17.9995 6.551,21.9115 L5.98833331,25.3568333 C5.73266909,26.4115794 4.70296926,27.0874275 3.63356956,26.9023933 C2.56416986,26.717359 1.82141306,25.7348292 1.935,24.6555 L2.52166669,21.1381667 C4.06833337,13.9888334 8.63366669,11.6448334 12.407,11.6448333 L34.3803333,11.6448333 C34.0582981,9.56740562 33.0320977,7.66375681 31.4736667,6.25283331 C27.7735686,2.94357226 22.0917858,3.25869635 18.7803333,6.95683331 L18.7803333,7.1915 L18.5483333,7.40483331 C17.7021665,8.08164176 16.4766966,7.98890842 15.7420125,7.19247438 C15.0073284,6.39604034 15.013582,5.16708268 15.7563333,4.37816669 Z" id="形状" fill="#202020"></path>
                <path d="M18.2416667,22.2395 L18.5456667,22.2875 C18.6998848,22.3088822 18.8494778,22.3557426 18.9883333,22.4261667 C19.1330351,22.4735294 19.2683885,22.5457179 19.3883333,22.6395 C19.527,22.7195 19.655,22.8235 19.7616667,22.9435 C19.8816667,23.0395 19.975,23.1568333 20.0443333,23.2955 C20.1355708,23.4207581 20.2141768,23.5547455 20.279,23.6955 L20.4176667,24.1381667 C20.431,24.2955 20.431,24.4501667 20.4176667,24.6075 C20.4176675,25.9010148 19.3698473,26.9500284 18.0763333,26.9515 C17.4739789,26.9308309 16.9027965,26.6786701 16.4816667,26.2475 C16.2602941,26.0265923 16.0853107,25.7636639 15.967,25.4741667 C15.8554755,25.1906519 15.8002251,24.8881334 15.8043333,24.5835 C15.7547537,24.2716078 15.803205,23.9520157 15.943,23.6688333 C15.9903627,23.5241315 16.0625512,23.3887781 16.1563333,23.2688333 C16.2233066,23.1342654 16.3188674,23.015952 16.4363333,22.9221667 C16.5389695,22.8109775 16.6576065,22.7157084 16.7883333,22.6395 C16.9074716,22.5459883 17.0419017,22.4738111 17.1856667,22.4261667 C17.3253508,22.3554612 17.4758679,22.3085936 17.631,22.2875 C17.9318511,22.2173266 18.2448156,22.2173266 18.5456667,22.2875 L18.2416667,22.2395 Z" id="路径" fill="#17B319"></path>
                <path d="M33.2096667,22.2181667 L33.5136667,22.2635 C33.8203334,22.3328333 34.1136667,22.4528333 34.3803333,22.6155 C34.6203333,22.8021667 34.8336666,23.0261667 35.0123333,23.2715 C35.115057,23.3854012 35.1883041,23.5227396 35.2256667,23.6715 C35.3663714,23.9543929 35.4157565,24.2739984 35.367,24.5861667 C35.3738679,24.8928687 35.3090361,25.1969387 35.1776667,25.4741667 C35.0608744,25.7759569 34.8679503,26.0423758 34.6176667,26.2475 C34.1847351,26.6901341 33.5941016,26.9432627 32.975,26.9515 C32.6628888,26.9391458 32.3548659,26.8761001 32.063,26.7648333 C31.573724,26.474158 31.2069109,26.0154047 31.031,25.4741667 C30.9066159,25.19441 30.8499712,24.8892595 30.8656667,24.5835 C30.8417921,24.4279664 30.8417921,24.2697003 30.8656667,24.1141667 L30.8656667,23.6688333 L31.1003333,23.2688333 C31.1680786,23.1340024 31.264567,23.0156676 31.383,22.9221667 L31.735,22.6155 C31.8653538,22.5260044 32.0070431,22.4542629 32.1563333,22.4021667 C32.2974132,22.3349636 32.4473739,22.2882692 32.6016667,22.2635 C32.9016647,22.1937406 33.2136686,22.1937406 33.5136667,22.2635 L33.2096667,22.2181667 Z" id="路径" fill="#17B319"></path>
            </g>
        </g>
    </g>
</svg>