<?xml version="1.0" encoding="UTF-8"?>
<svg width="46px" height="54px" viewBox="0 0 46 54" version="1.1" xmlns="http://www.w3.org/2000/svg" xmlns:xlink="http://www.w3.org/1999/xlink">
    <!-- Generator: Sketch 64 (93537) - https://sketch.com -->
    <title>Location</title>
    <desc>Created with Sketch.</desc>
    <g id="页面-1" stroke="none" stroke-width="1" fill="none" fill-rule="evenodd">
        <g id="电商图标" transform="translate(-355.000000, -260.000000)" fill-rule="nonzero">
            <g id="Location" transform="translate(355.000000, 260.000000)">
                <path d="M22.7755,0.0208333125 C35.2741667,0.0688333125 45.4021667,10.2661666 45.3543366,22.7461667 L45.3543366,22.9941667 C45.1861667,31.9141667 39.8235,39.3141667 35.3541667,43.9541667 C34.0848334,45.2795 32.7301667,46.5515 31.3355,47.7408333 C30.4948594,48.38068 29.3009112,48.2529793 28.6146102,47.4498159 C27.9283092,46.6466525 27.9883775,45.4473979 28.7515,44.7168333 C30.0448333,43.6128333 31.3008333,42.4315 32.4848333,41.1968333 C36.4581666,37.0741666 41.2288333,30.5515 41.3728333,22.9221667 C41.4128333,12.4421667 33.0661666,4.03683338 22.7595,3.99416669 L22.6875,3.99416669 C12.4181667,3.99416669 4.04216669,12.3195 4.00216669,22.5808333 C4.16839039,27.6284897 5.90193512,32.4991912 8.96216669,36.5168333 C12.5435,41.2875 17.9781667,46.3381666 23.1435,49.7008333 C23.8910587,50.1759742 24.2324257,51.0895779 23.9796053,51.9385094 C23.7267848,52.7874409 22.9412065,53.3654288 22.0555,53.3543284 C21.66997,53.3549414 21.2926572,53.2427673 20.9701667,53.0315 C15.4395,49.4315 9.62083331,44.0208333 5.78083331,38.9115 C2.22844427,34.2429449 0.215531089,28.5853542 0.0208333125,22.7221667 C0.0688333125,10.1168333 10.2288333,0.0208333125 22.6875,0.0208333125 L22.7755,0.0208333125 Z" id="形状" fill="#200E32"></path>
                <path d="M22.6795,14.3754898 C27.439106,14.3769651 31.2988128,18.2318995 31.3061667,22.9915 C31.1897725,27.6723357 27.3617826,31.4063216 22.6795,31.4063216 C17.9972174,31.4063216 14.1692275,27.6723357 14.0528333,22.9915 C14.0528333,21.8920851 14.9440851,21.0008333 16.0435,21.0008333 C17.1429149,21.0008333 18.0341667,21.8920851 18.0341667,22.9915 C18.0341667,25.5488333 20.1195,27.6315 22.6795,27.6315 C25.2395,27.6315 27.3248333,25.5488333 27.3248333,22.9915 C27.3248333,20.4315 25.2421666,18.3515 22.6795,18.3515 C21.945172,18.3895603 21.2497362,18.0194478 20.8711427,17.3890882 C20.4925493,16.7587287 20.4925493,15.970938 20.8711427,15.3405784 C21.2497362,14.7102189 21.945172,14.3401064 22.6795,14.3781667 L22.6795,14.3754898 Z" id="路径" fill="#17B319"></path>
            </g>
        </g>
    </g>
</svg>