<svg t="1637732941500" class="icon" viewBox="0 0 1024 1024" version="1.1" xmlns="http://www.w3.org/2000/svg" p-id="6974" width="64" height="64"><path d="M675.8 901.1h-81.9V737.3c0-45.2-36.7-81.9-81.9-81.9s-81.9 36.7-81.9 81.9v163.8h-81.9V737.3c0-90.3 73.5-163.8 163.8-163.8S675.8 647 675.8 737.3v163.8z" p-id="6975" fill="#1f1f1f"></path><path d="M750.5 983H274.3c-32.2 0-63.6-13.6-86.2-37.2-22.4-23.5-34.8-54.6-34.8-87.6V562.9H113.6c-30.4-0.2-57-19-67.8-48-10.5-28.1-3.5-59.7 17.8-80.4l0.2-0.2L445.7 67.8c37.1-35.7 95.4-35.7 132.5 0l-56.7 59.1c-5.6-5.4-13.4-5.4-19 0L133.4 481h60.9c22.6 0 41 18.3 41 41v336.4c0 11.6 4.4 22.9 12.1 31 7.3 7.7 16.9 11.9 27 11.9H750.6c10.2 0 19.8-4.2 27.1-11.9 7.7-8.1 12.1-19.4 12.1-31V521.9c0-22.6 18.3-41 41-41h60l-369.2-354 56.7-59.1 381.9 366.4 0.2 0.2c21.3 20.8 28.3 52.3 17.8 80.4-10.6 28.5-37.9 47.8-67.8 48h-38.9v295.3c0 33-12.3 64.2-34.8 87.7-22.5 23.7-53.9 37.2-86.2 37.2z" p-id="6976" fill="#1f1f1f"></path></svg>