<?xml version="1.0" encoding="UTF-8"?>
<svg width="46px" height="54px" viewBox="0 0 46 54" version="1.1" xmlns="http://www.w3.org/2000/svg" xmlns:xlink="http://www.w3.org/1999/xlink">
    <!-- Generator: Sketch 64 (93537) - https://sketch.com -->
    <title>Notification</title>
    <desc>Created with Sketch.</desc>
    <g id="页面-1" stroke="none" stroke-width="1" fill="none" fill-rule="evenodd">
        <g id="电商图标" transform="translate(-326.000000, -26.000000)" fill-rule="nonzero">
            <g id="Notification" transform="translate(326.000000, 26.000000)">
                <path d="M22.5968333,0.0208333125 C30.7835,0.0208333125 39.9621666,5.79416662 41.0048333,15.0608333 L41.0048333,19.8955 C41.3595,21.6395 42.1755,23.2581667 43.3701667,24.5888333 C43.4395,24.6688333 43.5035,24.7541666 43.5568333,24.8448333 C44.6390556,26.471283 45.2610334,28.3602527 45.3568333,30.3115 L45.2848333,30.8048333 C45.3655022,33.4755087 44.4748877,36.0848197 42.7781667,38.1488333 C40.6006949,40.4940095 37.6362953,41.9558012 34.4501667,42.2555 C26.5875568,43.1185467 18.6541099,43.1185467 10.7915,42.2555 C7.6517741,41.9353834 4.73871396,40.4741089 2.60483331,38.1488333 C0.880230531,36.1150119 -0.0374121611,33.5186619 0.0261666875,30.8528333 L0.0261666875,30.5248333 C0.15724712,28.514946 0.82790232,26.5776 1.9675,24.9168333 L2.15416669,24.6821667 C3.34083337,23.3488334 4.15683337,21.7301667 4.52216669,19.9888333 L4.52216669,15.1541667 L4.65283331,14.8875 C5.08591825,14.1459811 5.93699485,13.7550662 6.78168885,13.9096781 C7.62638285,14.0642899 8.28381431,14.7313204 8.42616669,15.5781667 L8.42616669,20.4101667 C8.43540408,20.4961415 8.43540408,20.5828585 8.42616669,20.6688333 C7.93125037,23.0929862 6.80429113,25.3432248 5.1595,27.1915 C4.52609473,28.1919877 4.167395,29.3416664 4.1195,30.5248333 L4.1195,31.0395 C4.06616669,32.7008333 4.62083331,34.3275 5.68216669,35.6155 C7.15602206,37.122094 9.11900747,38.053472 11.2181667,38.2421667 C18.8298572,39.0634079 26.5078095,39.0634079 34.1195,38.2421667 C36.2754781,38.0473837 38.2859862,37.0715286 39.7728333,35.4981667 C40.7808333,34.2395 41.3088333,32.6715 41.2661667,31.0635 L41.2661667,30.5248333 C41.2172354,29.3373737 40.8666601,28.1819434 40.2475,27.1675 C38.5343303,25.3404564 37.3410875,23.0883947 36.7915,20.6448333 C36.7822626,20.5588585 36.7822626,20.4721415 36.7915,20.3861667 L36.7915,15.5328333 C36.1061667,8.44483331 28.9861667,4.0555 22.7861667,4.0555 C20.1532111,4.04890766 17.562764,4.7192467 15.2635,6.00216669 L14.9808333,6.1435 C14.397544,6.3777551 13.7390388,6.33156145 13.1941667,6.01816669 C12.5559013,5.65070456 12.1692108,4.96406218 12.1858817,4.22776525 C12.2025526,3.49146831 12.6199241,2.82303111 13.2741667,2.48483331 C16.1237289,0.889274146 19.3310434,0.041574312 22.5968333,0.0208333125 Z" id="形状" fill="#202020"></path>
                <path d="M27.0608333,46.8741667 C27.8156091,46.2029088 28.9464882,46.1802912 29.7275,46.8208333 C30.1442886,47.1609999 30.4076005,47.6538238 30.4587008,48.1893748 C30.5098011,48.7249258 30.3444388,49.2586522 29.9995,49.6715 C28.2186528,51.9731819 25.4802527,53.330587 22.5701667,53.3541667 L21.9915,53.3275 C19.2994457,53.1355365 16.8166351,51.8058751 15.1648333,49.6715 L14.9915,49.4261667 C14.4677378,48.5676218 14.6578518,47.4542594 15.4368333,46.8181667 C16.3077626,46.1060001 17.5896011,46.2272872 18.3115,47.0901667 C19.3127471,48.4369081 20.8920104,49.2306891 22.5701667,49.2306891 C24.2483229,49.2306891 25.8275862,48.4369081 26.8288333,47.0901667 L26.8555,47.0901667 L27.0608333,46.8741667 Z" id="路径" fill="#17B319"></path>
            </g>
        </g>
    </g>
</svg>