<svg t="1609501882008" class="icon" viewBox="0 0 1024 1024" version="1.1" xmlns="http://www.w3.org/2000/svg" p-id="2683" width="32" height="32"><path d="M888.5 63.5h-753c-39.8 0-72 32.2-72 72v753.1c0 39.8 32.2 72 72 72h753.1c39.8 0 72-32.2 72-72V135.5c-0.1-39.8-32.4-72-72.1-72zM772.2 356.6L412.7 717.2l-0.4 0.4c-2.4 2.6-5.3 4.8-8.5 6.7-5.6 3.2-11.7 4.7-17.8 4.7-12.5 0-24.7-6.6-31.3-18.2L245.9 520.3c-9.9-17.3-3.9-39.2 13.4-49.1 17.3-9.9 39.2-3.9 49.1 13.4l85.4 149.5 327.5-328.5c14.1-14.1 36.8-14.1 50.8 0.1 14.1 14 14.1 36.8 0.1 50.9z" p-id="2684" fill="#17B319"></path></svg>