<?xml version="1.0" encoding="UTF-8"?>
<svg width="268px" height="268px" viewBox="0 0 268 268" version="1.1" xmlns="http://www.w3.org/2000/svg" xmlns:xlink="http://www.w3.org/1999/xlink">
    <!-- Generator: Sketch 64 (93537) - https://sketch.com -->
    <title>粉尘</title>
    <desc>Created with Sketch.</desc>
    <defs>
        <circle id="path-1" cx="113" cy="113" r="113"></circle>
        <filter x="-13.9%" y="-13.9%" width="127.9%" height="127.9%" filterUnits="objectBoundingBox" id="filter-2">
            <feMorphology radius="4" operator="dilate" in="SourceAlpha" result="shadowSpreadOuter1"></feMorphology>
            <feOffset dx="0" dy="0" in="shadowSpreadOuter1" result="shadowOffsetOuter1"></feOffset>
            <feGaussianBlur stdDeviation="6.5" in="shadowOffsetOuter1" result="shadowBlurOuter1"></feGaussianBlur>
            <feComposite in="shadowBlurOuter1" in2="SourceAlpha" operator="out" result="shadowBlurOuter1"></feComposite>
            <feColorMatrix values="0 0 0 0 0.0901960784   0 0 0 0 0.701960784   0 0 0 0 0.0980392157  0 0 0 0.109334025 0" type="matrix" in="shadowBlurOuter1"></feColorMatrix>
        </filter>
    </defs>
    <g id="页面-1" stroke="none" stroke-width="1" fill="none" fill-rule="evenodd">
        <g id="粉尘" transform="translate(21.000000, 21.000000)">
            <g id="椭圆形">
                <use fill="black" fill-opacity="1" filter="url(#filter-2)" xlink:href="#path-1"></use>
                <use fill-opacity="0.108606725" fill="#17B319" fill-rule="evenodd" xlink:href="#path-1"></use>
            </g>
            <path d="M112.5,208 C164.690909,208 207,165.690909 207,113.5 C207,61.3090911 164.690909,19 112.5,19 C60.3090911,19 18,61.3090911 18,113.5 C18,165.690909 60.3090911,208 112.5,208 Z M30.5,69.5 L194.5,157.5" id="形状结合" stroke="#17B319" stroke-width="12"></path>
            <path d="M110.687165,134.031764 C117.292161,130.218143 125.430021,130.218143 132.035017,134.031764 C138.640013,137.845385 142.708584,144.893186 142.708,152.520091 C142.708584,160.146996 138.640013,167.194797 132.035017,171.008418 C125.430021,174.822039 117.292161,174.822039 110.687165,171.008418 C104.082168,167.194797 100.013598,160.146996 100.014182,152.520091 C100.013598,144.893186 104.082168,137.845385 110.687165,134.031764 Z M69.9395703,105.217536 C75.4230509,102.051443 82.179131,102.051443 87.6626115,105.217536 C93.1460921,108.38363 96.5238045,114.234756 96.5232728,120.566636 C96.5238045,126.898517 93.1460921,132.749643 87.6626115,135.915736 C82.179131,139.08183 75.4230509,139.08183 69.9395703,135.915736 C64.4560898,132.749643 61.0783773,126.898517 61.0789091,120.566636 C61.0783773,114.234756 64.4560898,108.38363 69.9395703,105.217536 Z M137.339909,67.2601816 L137.809892,67.264308 C144.726876,67.3819359 151.335858,70.1803372 156.236827,75.0802395 C161.249182,80.0915033 164.063817,86.8897773 164.060733,93.9775455 C164.065362,101.066321 161.251409,107.866091 156.238886,112.878614 C151.226364,117.891136 144.426594,120.705089 137.337818,120.70046 C130.25005,120.703544 123.451776,117.888909 118.440512,112.876554 C113.429249,107.8642 110.616094,101.065313 110.620722,93.9775455 C110.617637,86.8897773 113.432272,80.0915033 118.444627,75.0802395 C123.456982,70.0689758 130.255869,67.2558213 137.343636,67.2604488 L137.339909,67.2601816 Z M72.4912727,54.2163427 C75.2329038,52.6334613 78.6107326,52.6334613 81.3523637,54.2163427 C84.0939948,55.7992242 85.7829091,58.7245098 85.7829091,61.8902727 C85.7829091,66.7841181 81.8156636,70.7513637 76.9218182,70.7513637 C72.0279728,70.7513637 68.0607273,66.7841181 68.0607273,61.8902727 C68.0607273,58.7245098 69.7496416,55.7992242 72.4912727,54.2163427 Z" id="形状结合" fill="#17B319" fill-rule="nonzero"></path>
        </g>
    </g>
</svg>