<?xml version="1.0" encoding="UTF-8"?>
<svg width="268px" height="268px" viewBox="0 0 268 268" version="1.1" xmlns="http://www.w3.org/2000/svg" xmlns:xlink="http://www.w3.org/1999/xlink">
    <!-- Generator: Sketch 64 (93537) - https://sketch.com -->
    <title>水 (1)</title>
    <desc>Created with Sketch.</desc>
    <defs>
        <radialGradient cx="50%" cy="9.33586919%" fx="50%" fy="9.33586919%" r="90.6641308%" id="radialGradient-1">
            <stop stop-color="#F6D09C" offset="0%"></stop>
            <stop stop-color="#E0962F" offset="100%"></stop>
        </radialGradient>
        <circle id="path-2" cx="84" cy="84" r="84"></circle>
        <filter x="-17.6%" y="-17.6%" width="136.3%" height="136.3%" filterUnits="objectBoundingBox" id="filter-3">
            <feOffset dx="1" dy="1" in="SourceAlpha" result="shadowOffsetOuter1"></feOffset>
            <feGaussianBlur stdDeviation="10" in="shadowOffsetOuter1" result="shadowBlurOuter1"></feGaussianBlur>
            <feColorMatrix values="0 0 0 0 0.921568627   0 0 0 0 0.635294118   0 0 0 0 0.239215686  0 0 0 1 0" type="matrix" in="shadowBlurOuter1"></feColorMatrix>
        </filter>
        <circle id="path-4" cx="113" cy="113" r="113"></circle>
        <filter x="-13.9%" y="-13.9%" width="127.9%" height="127.9%" filterUnits="objectBoundingBox" id="filter-5">
            <feMorphology radius="4" operator="dilate" in="SourceAlpha" result="shadowSpreadOuter1"></feMorphology>
            <feOffset dx="0" dy="0" in="shadowSpreadOuter1" result="shadowOffsetOuter1"></feOffset>
            <feGaussianBlur stdDeviation="6.5" in="shadowOffsetOuter1" result="shadowBlurOuter1"></feGaussianBlur>
            <feComposite in="shadowBlurOuter1" in2="SourceAlpha" operator="out" result="shadowBlurOuter1"></feComposite>
            <feColorMatrix values="0 0 0 0 0.0901960784   0 0 0 0 0.701960784   0 0 0 0 0.0980392157  0 0 0 0.109334025 0" type="matrix" in="shadowBlurOuter1"></feColorMatrix>
        </filter>
    </defs>
    <g id="页面-1" stroke="none" stroke-width="1" fill="none" fill-rule="evenodd">
        <g id="盒子-箱子" transform="translate(-144.000000, 252.000000)">
            <g id="椭圆形">
                <use fill="black" fill-opacity="1" filter="url(#filter-3)" xlink:href="#path-2"></use>
                <use fill="url(#radialGradient-1)" fill-rule="evenodd" xlink:href="#path-2"></use>
            </g>
        </g>
        <g id="水-(1)" transform="translate(21.000000, 21.000000)">
            <g id="椭圆形">
                <use fill="black" fill-opacity="1" filter="url(#filter-5)" xlink:href="#path-4"></use>
                <use fill-opacity="0.108606725" fill="#17B319" fill-rule="evenodd" xlink:href="#path-4"></use>
            </g>
            <path d="M114.824767,53.2399319 L149.13791,110.190789 C161.050824,130.340355 154.489858,156.326394 134.43973,168.405919 C114.389602,180.485443 88.3500722,174.140101 76.1047672,154.190789 C67.6796243,140.21136 68.2556243,123.28336 76.1047672,110.190789 L110.41791,53.2399319 C110.884344,52.470175 111.719005,52 112.619053,52 C113.519101,52 114.353762,52.470175 114.820196,53.2399319 L114.824767,53.2399319 Z" id="路径" fill="#17B319" fill-rule="nonzero"></path>
            <path d="M112.5,208 C164.690909,208 207,165.690909 207,113.5 C207,61.3090911 164.690909,19 112.5,19 C60.3090911,19 18,61.3090911 18,113.5 C18,165.690909 60.3090911,208 112.5,208 Z M30.5,69.5 L194.5,157.5" id="形状结合" stroke="#17B319" stroke-width="12"></path>
        </g>
    </g>
</svg>