<?xml version="1.0" encoding="UTF-8"?>
<svg width="62px" height="62px" viewBox="0 0 62 62" version="1.1" xmlns="http://www.w3.org/2000/svg" xmlns:xlink="http://www.w3.org/1999/xlink">
    <!-- Generator: Sketch 64 (93537) - https://sketch.com -->
    <title>步骤2备份</title>
    <desc>Created with Sketch.</desc>
    <g id="页面-1" stroke="none" stroke-width="1" fill="none" fill-rule="evenodd">
        <g id="步骤2备份" fill-rule="nonzero">
            <path d="M31,62 C13.88,62 0,48.12 0,31 C0,13.88 13.88,0 31,0 C48.12,0 62,13.88 62,31 C62,48.12 48.12,62 31,62 Z" id="路径" fill="#51b875"></path>
            <path d="M31,60 C47.016,60 60,47.016 60,31 C60,14.984 47.016,2 31,2 C14.984,2 2,14.984 2,31 C2,47.016 14.984,60 31,60 Z" id="路径" fill="#FFFFFF"></path>
            <path d="M31,7 C17.746,7 7,17.746 7,31 C7,44.254 17.746,55 31,55 C44.254,55 55,44.254 55,31 C55,17.745166 44.254834,7 31,7 Z" id="路径" fill="#51b875"></path>
            <path d="M38.574,41 L24.766,41 L24.766,37.528 L30.85,31.688 C32.126,30.468 33.02,29.442 33.53,28.614 C34.04,27.784 34.296,26.922 34.296,26.03 C34.296,24.014 33.216,23.008 31.056,23.008 C29.242,23.008 27.486,23.736 25.792,25.196 L25.792,21.272 C27.606,20.068 29.664,19.466 31.972,19.466 C34.058,19.466 35.712,19.998 36.932,21.06 C38.156,22.12 38.766,23.592 38.766,25.468 C38.766,27.948 37.262,30.546 34.254,33.262 L29.838,37.242 L29.838,37.322 L38.574,37.322 L38.574,41 Z" id="路径" fill="#FEFEFE"></path>
        </g>
    </g>
</svg>