<?xml version="1.0" encoding="UTF-8"?>
<svg width="149px" height="192px" viewBox="0 0 149 192" version="1.1" xmlns="http://www.w3.org/2000/svg" xmlns:xlink="http://www.w3.org/1999/xlink">
    <!-- Generator: Sketch 64 (93537) - https://sketch.com -->
    <title>回收站</title>
    <desc>Created with Sketch.</desc>
    <g id="页面-1" stroke="none" stroke-width="1" fill="none" fill-rule="evenodd">
        <g id="回收站" transform="translate(-35.000000, -11.000000)">
            <rect id="矩形备份" x="0" y="0" width="219" height="219"></rect>
            <path d="M178.081058,72 L41.3025567,72 C37.6110915,72 35.3767836,74.2501867 36.1539342,77.9678865 L48.0054804,196.347274 C48.0054804,200.847647 50.9197951,203 53.9312535,203 L164.092347,203 C167.783812,203 170.698127,200.749813 170.698127,197.032114 L182.549673,78.6527259 C184.006831,75.0328603 181.772523,72 178.081058,72 Z M105.611767,162.105302 C105.611767,164.355489 104.154609,165.823002 101.920301,165.823002 L82.6858247,165.823002 C80.4515168,165.823002 77.5372022,164.355489 76.0800449,162.887976 L65.0056492,148.702016 C63.5484919,147.234503 63.5484919,144.201643 63.5484919,142.049291 L65.0056492,138.331591 C65.7827998,136.864078 65.0056492,133.831217 62.7713413,133.831217 C61.314184,133.048544 59.8570266,132.363704 58.3027255,132.363704 C56.8455682,131.581031 56.8455682,130.896191 58.3027255,130.113518 L73.845737,127.178491 C75.3028943,126.395818 78.3143528,127.961165 79.7715101,129.428678 C82.005818,133.146378 86.3772899,138.331591 88.6115978,142.049291 C90.0687552,143.516804 89.3887484,144.299477 87.1544405,143.516804 L84.2401259,142.73413 C82.7829685,141.951456 80.5486606,141.266617 79.7715101,142.73413 C79.7715101,143.516804 80.5486606,144.984317 81.2286674,147.234503 L82.6858247,148.702016 C84.142982,150.169529 87.1544405,151.637043 89.2916046,151.637043 L101.143151,151.637043 C103.377459,151.637043 104.834616,153.104556 104.834616,155.354742 C105.611767,154.669903 105.611767,162.105302 105.611767,162.105302 L105.611767,162.105302 Z M107.846075,111.525019 L111.53754,110.057506 C112.994697,108.589993 114.451854,107.807319 114.451854,107.122479 C113.674704,106.339806 112.217546,105.654966 109.983239,105.654966 L108.526081,105.654966 C106.291773,105.654966 104.057465,107.122479 101.920301,108.589993 L93.7602204,117.492905 C92.3030631,118.960418 90.0687552,118.960418 88.6115978,118.275579 L82.6858247,113.775205 C81.2286674,112.307692 81.2286674,110.057506 81.9086742,108.589993 L93.7602204,93.7191934 C95.2173777,91.4690067 98.9088429,90.0014937 101.143151,90.0014937 L118.92047,90.0014937 C121.154778,90.0014937 123.389086,91.4690067 124.069093,93.7191934 L125.52625,97.4368932 C127.760558,98.9044063 129.994866,99.6870799 131.452023,98.9044063 L135.920639,96.6542196 C137.377796,95.1867065 138.154947,96.6542196 137.377796,98.1217326 L129.217715,112.307692 C127.760558,113.775205 125.52625,115.242718 123.291942,115.242718 C118.823326,115.242718 112.217546,114.460045 107.748931,113.775205 C106.388917,112.992532 105.611767,111.525019 107.846075,111.525019 L107.846075,111.525019 Z M152.240801,148.702016 L142.623563,163.572816 C141.166405,165.040329 138.932097,166.507842 136.69779,166.507842 L132.229174,166.507842 C129.994866,166.507842 127.760558,167.975355 127.760558,170.225541 C127.760558,171.693055 127.760558,173.160568 126.983407,174.725915 C126.983407,176.976102 125.52625,176.976102 124.749099,175.508588 L117.366169,162.105302 C115.909012,160.637789 116.589018,157.604929 118.14332,155.452577 C120.377628,151.734877 124.749099,146.549664 127.760558,142.831964 C129.217715,141.364451 129.994866,141.364451 129.217715,143.614638 L129.217715,148.115011 C129.217715,150.365198 129.217715,151.832711 130.674873,152.615385 C131.452023,152.615385 132.90918,151.147872 133.589187,149.680358 L134.366338,148.212845 C135.823495,146.745332 135.823495,143.712472 135.143488,140.777446 L130.674873,128.841673 C129.897722,127.37416 131.452023,124.341299 132.90918,124.341299 L140.292111,122.091113 C141.749268,121.308439 144.760727,122.873786 144.760727,124.341299 L150.6865,142.244959 C152.920808,143.516804 152.920808,146.45183 152.240801,148.702016 L152.240801,148.702016 Z" id="形状" fill="#E1E1E1" fill-rule="nonzero"></path>
            <path d="M167.249673,32.3432836 L156.732026,32.3432836 L156.732026,28.3656716 C156.732026,18.761194 148.941176,11 139.3,11 L79.5052288,11 C69.8640523,11 62.0732026,18.761194 62.0732026,28.3656716 L62.0732026,32.3432836 L51.7503268,32.3432836 C42.4986928,32.3432836 35,39.8134328 35,49.0298507 L35,63 L184,63 L184,49.0298507 C184,39.8134328 176.501307,32.3432836 167.249673,32.3432836 Z M71.7143791,28.3656716 C71.7143791,24.0970149 75.2202614,20.6044776 79.5052288,20.6044776 L139.3,20.6044776 C143.584967,20.6044776 147.09085,24.0970149 147.09085,28.3656716 L147.09085,32.3432836 L71.7143791,32.3432836 L71.7143791,28.3656716 Z" id="形状" fill="#AEABAD" fill-rule="nonzero"></path>
        </g>
    </g>
</svg>